<?xml version="1.0" encoding="utf-8"?>
<!-- Generator: Adobe Illustrator 16.0.2, SVG Export Plug-In . SVG Version: 6.00 Build 0)  -->
<!DOCTYPE svg PUBLIC "-//W3C//DTD SVG 1.1//EN" "http://www.w3.org/Graphics/SVG/1.1/DTD/svg11.dtd">
<svg version="1.1" id="Layer_1" xmlns="http://www.w3.org/2000/svg" xmlns:xlink="http://www.w3.org/1999/xlink" x="0px" y="0px"
	 width="72.293px" height="21.008px" viewBox="0 0 72.293 21.008" enable-background="new 0 0 72.293 21.008" xml:space="preserve">
<g>
	<defs>
		<rect id="SVGID_1_" width="72.293" height="21.008"/>
	</defs>
	<clipPath id="SVGID_2_">
		<use xlink:href="#SVGID_1_"  overflow="visible"/>
	</clipPath>
	<path clip-path="url(#SVGID_2_)" fill="#FFFFFF" d="M26.22,1.872c-0.06,0.096-0.123,0.168-0.188,0.216
		C25.965,2.136,25.88,2.16,25.777,2.16c-0.093,0-0.192-0.029-0.298-0.087s-0.226-0.123-0.36-0.195
		c-0.133-0.072-0.287-0.137-0.459-0.195c-0.171-0.058-0.368-0.087-0.587-0.087c-0.381,0-0.664,0.081-0.85,0.243
		c-0.186,0.162-0.278,0.381-0.278,0.657c0,0.176,0.055,0.322,0.168,0.438c0.111,0.116,0.258,0.215,0.44,0.3
		c0.183,0.084,0.391,0.16,0.624,0.231c0.234,0.07,0.474,0.148,0.717,0.234c0.244,0.086,0.483,0.187,0.718,0.303
		c0.233,0.116,0.441,0.264,0.624,0.444c0.181,0.18,0.328,0.399,0.44,0.656c0.112,0.259,0.168,0.57,0.168,0.934
		c0,0.404-0.07,0.782-0.21,1.134c-0.14,0.351-0.343,0.659-0.608,0.921c-0.267,0.261-0.595,0.468-0.985,0.618
		c-0.389,0.15-0.833,0.225-1.329,0.225c-0.272,0-0.549-0.028-0.831-0.084c-0.282-0.056-0.555-0.135-0.819-0.237
		C21.798,8.511,21.55,8.39,21.319,8.25c-0.233-0.14-0.435-0.296-0.607-0.468l0.6-0.948c0.049-0.068,0.111-0.125,0.189-0.171
		c0.078-0.046,0.163-0.069,0.255-0.069c0.12,0,0.241,0.038,0.363,0.114c0.122,0.076,0.26,0.16,0.414,0.252
		c0.154,0.092,0.332,0.176,0.531,0.252c0.2,0.076,0.436,0.114,0.708,0.114c0.368,0,0.654-0.081,0.858-0.243
		c0.204-0.162,0.306-0.419,0.306-0.772c0-0.204-0.056-0.369-0.168-0.498c-0.111-0.128-0.259-0.233-0.441-0.317
		s-0.389-0.158-0.621-0.223c-0.232-0.063-0.469-0.134-0.714-0.213c-0.244-0.078-0.482-0.173-0.713-0.288
		c-0.233-0.113-0.44-0.263-0.621-0.449c-0.183-0.186-0.33-0.418-0.442-0.696c-0.112-0.278-0.168-0.621-0.168-1.029
		c0-0.329,0.067-0.648,0.198-0.96c0.132-0.312,0.327-0.59,0.582-0.834c0.256-0.244,0.57-0.439,0.942-0.585S23.569,0,24.048,0
		c0.268,0,0.529,0.02,0.783,0.062s0.495,0.105,0.723,0.187c0.229,0.082,0.441,0.18,0.64,0.294c0.197,0.114,0.375,0.243,0.53,0.387
		L26.22,1.872z"/>
	<path clip-path="url(#SVGID_2_)" fill="#FFFFFF" d="M35.683,8.838H34.11c-0.176,0-0.318-0.041-0.425-0.123
		c-0.109-0.082-0.191-0.187-0.246-0.316l-0.517-1.523h-3.324l-0.516,1.523c-0.044,0.113-0.123,0.214-0.237,0.304
		c-0.114,0.09-0.255,0.135-0.423,0.135h-1.584l3.384-8.742h2.076L35.683,8.838z M32.46,5.496l-0.81-2.395
		c-0.06-0.151-0.124-0.331-0.192-0.537c-0.068-0.205-0.136-0.428-0.204-0.669c-0.06,0.245-0.124,0.471-0.191,0.679
		c-0.069,0.208-0.133,0.388-0.193,0.54l-0.804,2.382H32.46z"/>
	<path clip-path="url(#SVGID_2_)" fill="#FFFFFF" d="M41.977,6.576c0.048,0,0.096,0.009,0.144,0.026
		c0.048,0.019,0.094,0.05,0.138,0.094l0.805,0.846c-0.353,0.46-0.793,0.806-1.323,1.041c-0.53,0.233-1.157,0.35-1.881,0.35
		c-0.664,0-1.259-0.112-1.785-0.338s-0.972-0.539-1.338-0.936c-0.366-0.398-0.647-0.87-0.843-1.416
		c-0.196-0.546-0.294-1.14-0.294-1.779c0-0.653,0.106-1.251,0.317-1.797c0.212-0.546,0.511-1.018,0.895-1.413
		c0.384-0.397,0.844-0.704,1.38-0.924C38.727,0.11,39.316,0,39.96,0c0.329,0,0.638,0.029,0.928,0.087
		c0.29,0.057,0.561,0.137,0.813,0.24c0.252,0.102,0.484,0.225,0.696,0.369s0.399,0.3,0.563,0.468l-0.684,0.918
		c-0.044,0.056-0.096,0.106-0.156,0.153c-0.06,0.046-0.144,0.069-0.252,0.069c-0.072,0-0.14-0.016-0.203-0.048
		c-0.064-0.033-0.133-0.072-0.205-0.117c-0.071-0.046-0.15-0.096-0.236-0.15c-0.086-0.055-0.188-0.104-0.307-0.15
		c-0.118-0.046-0.256-0.085-0.414-0.117c-0.157-0.033-0.343-0.048-0.555-0.048c-0.336,0-0.643,0.062-0.921,0.186
		s-0.519,0.305-0.72,0.543c-0.202,0.237-0.358,0.529-0.469,0.876c-0.109,0.346-0.165,0.74-0.165,1.185
		c0,0.448,0.062,0.845,0.184,1.194c0.122,0.348,0.288,0.641,0.498,0.879c0.21,0.238,0.455,0.419,0.734,0.543
		c0.28,0.124,0.58,0.185,0.9,0.185c0.184,0,0.352-0.008,0.504-0.026s0.295-0.049,0.426-0.091c0.133-0.042,0.256-0.097,0.372-0.168
		c0.116-0.069,0.234-0.158,0.354-0.266c0.048-0.04,0.101-0.074,0.156-0.099C41.858,6.589,41.916,6.576,41.977,6.576"/>
	<polygon clip-path="url(#SVGID_2_)" fill="#FFFFFF" points="51.581,0.096 51.581,8.838 49.542,8.838 49.542,5.142 45.989,5.142 
		45.989,8.838 43.949,8.838 43.949,0.096 45.989,0.096 45.989,3.75 49.542,3.75 49.542,0.096 	"/>
	<path clip-path="url(#SVGID_2_)" fill="#FFFFFF" d="M6.378,18.65c0.048,0,0.096,0.009,0.144,0.026
		c0.047,0.019,0.093,0.05,0.137,0.094l0.805,0.846c-0.353,0.46-0.793,0.807-1.323,1.041c-0.531,0.233-1.158,0.351-1.881,0.351
		c-0.664,0-1.259-0.112-1.785-0.339c-0.527-0.226-0.972-0.538-1.338-0.936c-0.366-0.398-0.648-0.87-0.843-1.416
		C0.098,17.771,0,17.178,0,16.538c0-0.652,0.106-1.251,0.317-1.797c0.212-0.546,0.511-1.018,0.895-1.413
		c0.384-0.396,0.844-0.704,1.38-0.924s1.126-0.33,1.769-0.33c0.329,0,0.638,0.029,0.928,0.087s0.561,0.138,0.813,0.24
		c0.252,0.102,0.484,0.225,0.696,0.369c0.212,0.144,0.399,0.3,0.563,0.468l-0.683,0.918c-0.044,0.057-0.096,0.106-0.156,0.153
		c-0.06,0.046-0.144,0.068-0.252,0.068c-0.073,0-0.14-0.016-0.204-0.048s-0.132-0.071-0.205-0.116
		c-0.071-0.047-0.15-0.097-0.236-0.15c-0.086-0.055-0.188-0.104-0.307-0.15c-0.118-0.046-0.255-0.085-0.414-0.116
		c-0.157-0.033-0.342-0.049-0.554-0.049c-0.336,0-0.643,0.063-0.921,0.187c-0.279,0.124-0.519,0.305-0.72,0.543
		c-0.202,0.237-0.358,0.529-0.469,0.876c-0.109,0.346-0.165,0.74-0.165,1.185c0,0.448,0.062,0.846,0.184,1.194
		c0.122,0.348,0.288,0.641,0.498,0.879s0.455,0.419,0.734,0.543c0.281,0.124,0.58,0.186,0.901,0.186
		c0.183,0,0.351-0.009,0.504-0.026c0.152-0.018,0.294-0.049,0.425-0.091c0.133-0.042,0.256-0.098,0.372-0.168
		c0.117-0.069,0.235-0.158,0.355-0.267c0.048-0.04,0.1-0.073,0.156-0.099C6.26,18.663,6.317,18.65,6.378,18.65"/>
	<polygon clip-path="url(#SVGID_2_)" fill="#FFFFFF" points="15.983,12.17 15.983,20.912 13.944,20.912 13.944,17.216 
		10.392,17.216 10.392,20.912 8.352,20.912 8.352,12.17 10.392,12.17 10.392,15.824 13.944,15.824 13.944,12.17 	"/>
	<path clip-path="url(#SVGID_2_)" fill="#FFFFFF" d="M21.323,19.311c0.271,0,0.515-0.046,0.729-0.136
		c0.213-0.09,0.395-0.219,0.542-0.387c0.149-0.168,0.262-0.374,0.34-0.615c0.077-0.242,0.117-0.517,0.117-0.825V12.17h2.028v5.178
		c0,0.536-0.087,1.028-0.261,1.477c-0.174,0.448-0.423,0.834-0.747,1.158c-0.324,0.323-0.718,0.576-1.183,0.756
		c-0.463,0.18-0.985,0.27-1.565,0.27c-0.584,0-1.108-0.09-1.572-0.27c-0.464-0.18-0.858-0.433-1.182-0.756
		c-0.324-0.324-0.572-0.71-0.744-1.158s-0.258-0.94-0.258-1.477V12.17h2.027v5.172c0,0.309,0.04,0.583,0.118,0.825
		c0.078,0.242,0.191,0.448,0.339,0.618s0.329,0.3,0.543,0.39C20.807,19.265,21.051,19.311,21.323,19.311"/>
	<path clip-path="url(#SVGID_2_)" fill="#FFFFFF" d="M30.852,17.588v3.324h-2.028v-3.324l-3.168-5.418h1.788
		c0.176,0,0.315,0.041,0.417,0.123c0.101,0.082,0.186,0.188,0.255,0.316l1.236,2.543c0.104,0.2,0.198,0.387,0.282,0.561
		s0.157,0.346,0.222,0.514c0.059-0.173,0.129-0.346,0.207-0.52s0.169-0.359,0.272-0.555l1.225-2.543
		c0.027-0.053,0.062-0.105,0.102-0.157c0.04-0.051,0.086-0.099,0.141-0.141c0.054-0.042,0.115-0.076,0.186-0.103
		c0.07-0.025,0.147-0.039,0.231-0.039h1.8L30.852,17.588z"/>
	<polygon clip-path="url(#SVGID_2_)" fill="#FFFFFF" points="36.743,13.73 36.743,15.771 39.491,15.771 39.491,17.271 
		36.743,17.271 36.743,19.353 40.331,19.353 40.331,20.912 34.703,20.912 34.703,12.17 40.331,12.17 40.331,13.73 	"/>
	<path clip-path="url(#SVGID_2_)" fill="#FFFFFF" d="M49.211,12.17v8.742h-1.056c-0.156,0-0.287-0.025-0.393-0.075
		c-0.106-0.05-0.211-0.137-0.315-0.261l-4.122-5.214c0.017,0.156,0.027,0.307,0.032,0.453c0.007,0.146,0.01,0.282,0.01,0.411v4.686
		h-1.788V12.17h1.068c0.088,0,0.162,0.004,0.222,0.012c0.061,0.009,0.113,0.023,0.162,0.046c0.048,0.021,0.094,0.053,0.138,0.093
		s0.095,0.094,0.15,0.161l4.158,5.25c-0.021-0.167-0.034-0.33-0.042-0.488s-0.012-0.307-0.012-0.447V12.17H49.211z"/>
	<polygon clip-path="url(#SVGID_2_)" fill="#FFFFFF" points="57.186,13.778 54.726,13.778 54.726,20.912 52.697,20.912 
		52.697,13.778 50.237,13.778 50.237,12.17 57.186,12.17 	"/>
	<path clip-path="url(#SVGID_2_)" fill="#FFFFFF" d="M65.201,20.912h-1.572c-0.177,0-0.318-0.041-0.426-0.123
		c-0.108-0.082-0.19-0.187-0.246-0.315L62.44,18.95h-3.324l-0.516,1.523c-0.044,0.112-0.123,0.214-0.237,0.304
		s-0.255,0.135-0.423,0.135h-1.584l3.384-8.742h2.076L65.201,20.912z M61.979,17.57l-0.81-2.395
		c-0.061-0.151-0.124-0.331-0.192-0.537c-0.068-0.205-0.136-0.429-0.204-0.669c-0.06,0.244-0.124,0.471-0.191,0.679
		c-0.068,0.208-0.133,0.388-0.192,0.54l-0.804,2.382H61.979z"/>
	<path clip-path="url(#SVGID_2_)" fill="#FFFFFF" d="M69.125,17.588v3.324h-2.028v-3.324l-3.168-5.418h1.788
		c0.176,0,0.315,0.041,0.417,0.123s0.187,0.188,0.255,0.316l1.236,2.543c0.104,0.2,0.198,0.387,0.282,0.561s0.157,0.346,0.222,0.514
		c0.06-0.173,0.129-0.346,0.207-0.52s0.169-0.359,0.272-0.555l1.225-2.543c0.027-0.053,0.062-0.105,0.102-0.157
		c0.04-0.051,0.087-0.099,0.142-0.141c0.054-0.042,0.115-0.076,0.186-0.103c0.07-0.025,0.147-0.039,0.231-0.039h1.8L69.125,17.588z"
		/>
</g>
</svg>
