<?xml version="1.0" encoding="utf-8"?>
<!-- Generator: Adobe Illustrator 16.0.2, SVG Export Plug-In . SVG Version: 6.00 Build 0)  -->
<!DOCTYPE svg PUBLIC "-//W3C//DTD SVG 1.1//EN" "http://www.w3.org/Graphics/SVG/1.1/DTD/svg11.dtd">
<svg version="1.1" id="Layer_1" xmlns="http://www.w3.org/2000/svg" xmlns:xlink="http://www.w3.org/1999/xlink" x="0px" y="0px"
	 width="63.776px" height="59.646px" viewBox="0 0 63.776 59.646" enable-background="new 0 0 63.776 59.646" xml:space="preserve">
<path fill="#FFFFFF" d="M0.458,33.112c2.149,0.867,4.164,1.676,6.176,2.488c7.114,2.877,14.225,5.758,21.345,8.619
	c0.48,0.191,0.654,0.41,0.644,0.943c-0.042,2.107,0.16,4.189,1.125,6.109c1.378,2.744,3.873,3.799,6.866,3.064
	c3.575-0.875,6.011-3.156,7.899-6.164c2.117-3.371,3.575-7.047,4.87-10.785c2.908-8.394,5.762-16.805,8.637-25.211
	c0.061-0.176,0.1-0.358,0.17-0.62c-10.601-2.111-21.17-4.215-31.79-6.33c-0.616,1.706-1.221,3.372-1.822,5.038
	c-2.507,6.939-5.018,13.88-7.519,20.823c-0.383,1.064-1.008,1.852-2.205,1.934c-1.951,0.135-3.133-1.525-2.453-3.455
	c1.092-3.094,2.218-6.177,3.332-9.264c2.195-6.075,4.393-12.15,6.588-18.226c0.644-1.779,1.604-2.339,3.483-1.966
	c10.029,1.991,20.056,3.991,30.084,5.987c1.887,0.375,3.777,0.731,5.659,1.131c1.843,0.39,2.609,1.7,2.051,3.506
	c-0.803,2.596-1.571,5.205-2.466,7.771c-2.897,8.309-5.79,16.62-8.801,24.887c-1.299,3.564-3.063,6.922-5.47,9.904
	c-2.924,3.623-6.742,5.596-11.305,6.242c-2.667,0.379-5.158-0.271-7.553-1.348c-6.809-3.063-13.592-6.182-20.408-9.227
	c-1.964-0.877-3.738-1.953-5.089-3.656c-1.947-2.453-2.621-5.293-2.491-8.35C0.07,35.712,0.297,34.472,0.458,33.112"/>
</svg>
