<?xml version="1.0" encoding="utf-8"?>
<!-- Generator: Adobe Illustrator 16.0.2, SVG Export Plug-In . SVG Version: 6.00 Build 0)  -->
<!DOCTYPE svg PUBLIC "-//W3C//DTD SVG 1.1//EN" "http://www.w3.org/Graphics/SVG/1.1/DTD/svg11.dtd">
<svg version="1.1" id="Layer_1" xmlns="http://www.w3.org/2000/svg" xmlns:xlink="http://www.w3.org/1999/xlink" x="0px" y="0px"
	 width="57.2px" height="58.625px" viewBox="0 0 57.2 58.625" enable-background="new 0 0 57.2 58.625" xml:space="preserve">
<path fill="#FFFFFF" d="M55.254,49.247c0,0-0.243-4.361-8.271-6.648c-8.027-2.291-9.294-4.193-9.294-4.193
	c-0.528-2.602,1.566-3.209,3.096-3.318l-7.298-14.695c-0.31,0.081-0.63,0.168-0.964,0.258l2.292,4.498
	c0.225,0.436-0.023,0.989-0.559,1.263l-0.162,0.08c-0.182,0.096-0.383,0.143-0.574,0.143c-0.348,0-0.639-0.157-0.773-0.424
	l-2.502-4.905c-8.543,2.426-10.092,2.445-16.596,3.897c-6.93,1.552-12.307,0.897-12.307,0.897s-3.019,15.894,0,15.812
	c3.013-0.08,6.643,1.348,6.643,1.348c8.721,4.279,23.473,3.219,21.027,3.91c-2.446,0.693-3.218,1.266-2.975,3.83
	c0.242,2.57,6.275,1.104,6.275,1.104s-0.245,0.975,0.816,3.057c1.055,2.078,8.558-2.857,8.558-2.857s-1.061,3.301,2.158,3.508
	c3.219,0.205,3.056-3.182,3.788-3.219c0.734-0.043,2.487,0.242,2.487,0.242C56.883,53.93,55.254,49.247,55.254,49.247"/>
<path fill="#FFFFFF" d="M56.925,47.288c0.65-3.176-0.081-4.809-1.714-10.348c-1.628-5.545-3.83-6.682-9.37-11.084
	c-3.69-2.933-4.131-5.498-7-6.021l8.973,18.348c0.516,0.734,0.851,1.494,1.061,2.162l1.156,2.365
	c2.21,1.041,2.983,1.934,2.983,1.934c6.764,6.762,0.874,8.457,0.874,8.457C58.555,53.606,56.925,47.288,56.925,47.288"/>
<polygon fill="#FFFFFF" points="41.883,35.077 44.533,40.417 48.464,41.749 45.778,36.266 37.694,19.737 36.304,16.896 
	33.567,18.333 34.471,20.157 "/>
<path fill="#FFFFFF" d="M33.305,17.804l2.741-1.438l0.44-0.23l0.434-0.228l0.091-0.048c-0.324-0.611-0.678-1.258-1.051-1.916
	c-0.195-0.349-0.401-0.706-0.606-1.065C32.47,7.889,28.673,2.202,26.486,0l-1.243,0.648c0.525,2.809,2.695,8.405,4.958,13.34
	l-0.263,0.139l-0.264,0.133l-0.329,0.177l0.808,1.576l0.277-0.143l0.258-0.14l0.262-0.139c0.459,0.965,0.917,1.887,1.356,2.732
	l0.119-0.063L33.305,17.804z"/>
<path fill="#FFFFFF" d="M28.124,13.109c-0.054-0.101-0.178-0.158-0.339-0.158c-0.115,0-0.239,0.028-0.354,0.086l-0.158,0.085
	c-0.177,0.087-0.31,0.23-0.357,0.378c-0.02,0.059-0.029,0.144,0.009,0.22l3.797,7.446l2.46,4.818
	c0.085,0.172,0.414,0.21,0.688,0.072l0.161-0.088c0.282-0.143,0.439-0.415,0.35-0.596l-2.34-4.59L28.124,13.109z"/>
<path fill="#FFFFFF" d="M54.132,57.241c0.511-0.869-0.329-3.611-0.329-3.611c-2.017,0.27-3.73,0.043-3.73,0.043
	c1.609,3.053,2.626,3.83,3.195,3.959l0.005,0.016c0.11,0.238,0.727,1.074,0.964,0.969c0.24-0.109,0.011-1.127-0.1-1.365
	L54.132,57.241z"/>
</svg>
