<?xml version="1.0" encoding="utf-8"?>
<!-- Generator: Adobe Illustrator 16.0.2, SVG Export Plug-In . SVG Version: 6.00 Build 0)  -->
<!DOCTYPE svg PUBLIC "-//W3C//DTD SVG 1.1//EN" "http://www.w3.org/Graphics/SVG/1.1/DTD/svg11.dtd">
<svg version="1.1" id="Layer_1" xmlns="http://www.w3.org/2000/svg" xmlns:xlink="http://www.w3.org/1999/xlink" x="0px" y="0px"
	 width="81.879px" height="55.823px" viewBox="0 0 81.879 55.823" enable-background="new 0 0 81.879 55.823" xml:space="preserve">
<path fill="#333333" d="M45.708,43.957c-2.886,0.463-5.57,1.295-8.217,1.189c-2.116-0.086-4.488-0.897-6.188-2.147
	c-1.568-1.153-2.975-1.536-4.777-1.55c-2.235-0.016-4.55,0.055-6.688-0.479c-5.791-1.439-9.328-6.654-8.913-12.65
	c0.386-5.572,4.734-10.107,10.411-11.051c0.842-0.141,1.847-0.793,2.305-1.51c2.509-3.924,6.64-5.234,10.879-3.456
	c0.75,0.314,1.996,0.238,2.673-0.193c4.932-3.142,10.477-2.842,14.965,0.902c0.714,0.595,1.611,0.982,2.454,1.408
	c0.785,0.397,1.68,0.612,2.406,1.09c3.258,2.143,6.594,4.193,9.667,6.578c3.281,2.546,4.701,6.136,4.01,10.259
	c-0.723,4.299-3.278,7.188-7.461,8.67c-0.793,0.281-1.762,1.115-1.951,1.869c-0.822,3.254-2.552,5.543-5.919,6.256
	c-3.39,0.718-6.883-0.816-8.787-3.713C46.184,44.833,45.85,44.199,45.708,43.957 M37.541,14.131v2.703
	c-0.716-0.426-1.424-0.868-2.151-1.273c-1.301-0.724-2.546-1.818-3.936-2.062c-3.707-0.649-6.629,1.986-6.993,5.859
	c-0.059,0.624-0.472,1.215-0.721,1.822c-0.337-0.164-0.808-0.241-0.982-0.51c-0.279-0.428-0.361-0.983-0.514-1.442
	c-4.958,0.174-8.963,3.789-9.69,8.605c-0.722,4.788,2.225,9.817,6.972,11.033c2.769,0.709,5.757,0.567,8.762,0.819
	c-1.036-6.43,0.119-8.74,5.371-11.644c1.126-0.622,2.339-1.267,1.461-2.983c-0.182-0.356,0.107-0.952,0.18-1.437
	c0.519,0.237,1.321,0.346,1.498,0.738c0.439,0.968,0.592,2.066,0.834,3.009c1.98,0.297,3.902,0.495,5.773,0.919
	c0.607,0.138,1.083,0.867,1.617,1.326c-0.684,0.157-1.369,0.456-2.051,0.446c-2.549-0.041-5.135-0.51-7.634-0.207
	c-3.504,0.423-5.177,2.723-5.315,6.365c-0.132,3.453,1.634,5.89,4.992,6.707c3.988,0.971,7.626,0.144,10.922-2.301
	c2.184-1.617,4.441-3.138,6.59-4.8c0.794-0.614,1.354-1.524,2.05-2.272c0.463-0.498,0.977-0.949,1.469-1.422
	c0.144,0.639,0.337,1.271,0.414,1.918c0.044,0.363-0.103,0.75-0.157,1.09c1.155,0.512,2.23,0.869,3.161,1.457
	c0.42,0.264,0.552,0.984,0.815,1.498c-0.557,0.063-1.185,0.33-1.657,0.16c-4.206-1.502-8.082-0.395-10.806,3.217
	c-0.246,0.326-0.411,0.862-0.341,1.25c0.461,2.537,4.026,4.799,6.956,4.472c2.857-0.319,4.683-2.526,4.639-5.767
	c-0.952,0-1.935,0.131-2.86-0.041c-0.796-0.147-1.528-0.643-2.288-0.983c0.798-0.302,1.576-0.772,2.399-0.872
	c1.901-0.229,3.884-0.027,5.729-0.453c3.577-0.824,4.961-3.502,4.02-7.168c-0.802-3.116-3.223-4.432-6.716-3.645
	c-0.861,0.195-1.711,0.467-2.581,0.592c-2.413,0.346-4.334,1.188-4.729,3.973c-0.049,0.352-0.707,0.615-1.084,0.919
	c-0.253-0.442-0.752-0.911-0.711-1.325c0.097-0.982,0.449-1.941,0.713-2.963c-2.759-0.418-5.158-1.26-5.897-4.234
	c-0.112-0.456,0.361-1.057,0.563-1.591c0.404,0.3,0.813,0.595,1.213,0.902c1.201,0.924,2.327,2.5,3.612,2.642
	c2.501,0.276,5.09-0.252,8.151-0.486c-0.755-0.902-1.119-1.166-1.237-1.515c-0.243-0.715-0.354-1.475-0.52-2.216
	c0.641,0.308,1.322,0.551,1.908,0.938c0.926,0.612,1.727,1.778,2.688,1.906c3.584,0.479,5.79,2.387,7.177,5.725
	c-0.073-1.905-0.258-3.791-1.022-5.402c-1.773-3.742-5.305-4.821-9.42-5.132c1.189-2.08-0.161-2.772-1.409-3.496
	c-2.863-1.664-5.886-2.469-9.235-1.878c-0.617,0.108-1.336-0.366-2.008-0.571c0.574-0.419,1.112-0.906,1.735-1.234
	c0.477-0.251,1.06-0.299,1.691-0.463C45.249,10.844,40.966,11.209,37.541,14.131"/>
<path fill="#333333" d="M17.564,3.729c0.519,0.374,0.957,0.586,1.253,0.924c1.121,1.28,2.202,2.596,3.259,3.93
	c0.034,0.045-0.517,0.634-0.53,0.624c-1.399-1.075-2.788-2.165-4.137-3.303c-0.279-0.234-0.583-0.667-0.555-0.978
	C16.89,4.547,17.265,4.202,17.564,3.729"/>
<path fill="#333333" d="M22.852,47.095c-1.814,1.778-3.27,3.242-4.804,4.618c-0.092,0.083-1.152-0.505-1.182-0.832
	C16.759,49.674,20.7,46.773,22.852,47.095"/>
<path fill="#333333" d="M2.922,29.322C1.821,28.824,0.911,28.414,0,28.003c0.981-0.353,1.963-0.982,2.943-0.98
	c1.078,0.002,2.154,0.585,3.232,0.917C5.132,28.382,4.088,28.826,2.922,29.322"/>
<path fill="#333333" d="M78.713,29.289c-1.078-0.482-2.045-0.914-3.012-1.346c0.996-0.333,1.997-0.939,2.986-0.921
	c1.069,0.021,2.129,0.625,3.191,0.975C80.882,28.404,79.884,28.811,78.713,29.289"/>
<path fill="#333333" d="M39.512,3.042C40.028,1.859,40.434,0.929,40.838,0c0.356,0.991,0.957,1.973,0.998,2.977
	c0.039,0.958-0.507,1.938-0.796,2.909C40.545,4.966,40.051,4.045,39.512,3.042"/>
<path fill="#333333" d="M65.359,5.08c-1.595,1.356-3.189,2.713-4.783,4.069c-0.165-0.532-0.637-1.322-0.442-1.554
	c1.026-1.226,2.17-2.37,3.393-3.402c0.293-0.247,1.04,0.043,1.577,0.087C65.188,4.546,65.273,4.813,65.359,5.08"/>
<path fill="#333333" d="M42.377,52.916c-0.526,1.098-0.961,2.002-1.395,2.907c-0.336-0.933-0.934-1.866-0.936-2.8
	c-0.002-1.033,0.544-2.067,0.85-3.102C41.364,50.867,41.831,51.813,42.377,52.916"/>
<path fill="#333333" d="M66.414,52.535c-0.679,0.088-1.477,0.418-1.719,0.182c-0.994-0.978-1.83-2.119-2.674-3.24
	c-0.031-0.041,0.681-0.744,0.715-0.717c1.104,0.867,2.176,1.775,3.226,2.707C66.121,51.607,66.15,51.893,66.414,52.535"/>
<path fill="#333333" d="M42.804,20.262c-2.189,0.561-4.519,1.084-6.799,1.771c-1.294,0.389-2.627,0.898-2.297,2.793
	c0.055,0.316-0.584,0.752-0.903,1.133c-0.314-0.305-0.699-0.565-0.93-0.924c-0.493-0.768-0.932-1.575-1.343-2.392
	c-0.19-0.377-0.265-0.814-0.392-1.223c0.425-0.117,0.843-0.275,1.275-0.344c0.934-0.148,1.974-0.032,2.795-0.408
	c4.728-2.165,9.542-2.518,14.557-1.18c0.942,0.252,2.04-0.111,3.068-0.132c0.518-0.011,1.038,0.108,1.557,0.168
	c-0.119,0.478-0.219,0.962-0.362,1.433c-0.228,0.752-0.471,1.501-0.735,2.241c-0.147,0.411-0.271,0.889-0.566,1.162
	c-0.132,0.121-0.92-0.12-0.974-0.316C49.573,19.713,45.76,21.35,42.804,20.262"/>
<path fill="#333333" d="M28.819,28.789c-0.539-0.127-1.521-0.065-2.023-0.528c-1.616-1.487-2.9-0.754-4.246,0.304
	c-1.513,1.188-0.502,2.11,0.186,3.225c0.383,0.621,0.272,1.549,0.383,2.338c-0.618-0.411-1.193-0.926-1.865-1.213
	c-1.222-0.521-2.497-0.916-3.755-1.35c-0.529-0.182-1.072-0.326-1.609-0.486c0.354-0.424,0.718-1.221,1.059-1.211
	c2.086,0.06,3.336-1.073,4.476-2.612c0.398-0.539,1.137-0.954,1.801-1.143c1.198-0.341,2.011-0.782,1.93-2.243
	c-0.021-0.381,0.598-0.797,0.921-1.197c0.3,0.383,0.7,0.723,0.879,1.155C27.543,25.261,28.053,26.728,28.819,28.789"/>
<path fill="#333333" d="M35.334,35.141c1.024-0.358,2.027-0.83,3.081-1.047c1.378-0.285,2.807-0.56,4.193-0.484
	c1.358,0.074,2.705,1.106,3.984-0.287c0.128-0.139,0.837,0.012,1.021,0.236c0.183,0.225,0.152,0.756,0.024,1.076
	c-0.454,1.129-0.958,2.239-1.511,3.323c-0.193,0.379-0.582,0.66-0.882,0.985c-0.347-0.364-0.871-0.672-1.01-1.103
	c-0.713-2.22-2.032-2.995-4.16-2.366c-1.228,0.364-1.984,0.883-1.511,2.4c0.156,0.502-0.31,1.197-0.49,1.805
	c-0.417-0.387-0.836-0.77-1.251-1.158c-0.703-0.66-1.427-1.299-2.098-1.99c-0.384-0.393-0.682-0.87-1.019-1.309
	c0.439-0.254,0.879-0.507,1.319-0.76C35.129,34.689,35.231,34.915,35.334,35.141"/>
</svg>
