<?xml version="1.0" encoding="utf-8"?>
<!-- Generator: Adobe Illustrator 16.0.2, SVG Export Plug-In . SVG Version: 6.00 Build 0)  -->
<!DOCTYPE svg PUBLIC "-//W3C//DTD SVG 1.1//EN" "http://www.w3.org/Graphics/SVG/1.1/DTD/svg11.dtd">
<svg version="1.1" id="Layer_1" xmlns="http://www.w3.org/2000/svg" xmlns:xlink="http://www.w3.org/1999/xlink" x="0px" y="0px"
	 width="72.054px" height="72.054px" viewBox="0 0 72.054 72.054" enable-background="new 0 0 72.054 72.054" xml:space="preserve">
<path fill="#FFFFFF" d="M36.027,27.391c-4.762,0-8.637,3.874-8.637,8.636c0,4.764,3.875,8.638,8.637,8.638
	c4.763,0,8.638-3.874,8.638-8.638C44.666,31.265,40.791,27.391,36.027,27.391 M36.027,42.33c-3.475,0-6.302-2.827-6.302-6.303
	c0-3.475,2.827-6.302,6.302-6.302c3.476,0,6.302,2.828,6.302,6.302C42.33,39.502,39.503,42.33,36.027,42.33"/>
<path fill="#FFFFFF" d="M36.027,32.37c-0.644,0-1.167,0.523-1.167,1.167c0,0.645,0.523,1.167,1.167,1.167
	c0.729,0,1.323,0.594,1.323,1.323c0,0.645,0.522,1.168,1.167,1.168s1.167-0.523,1.167-1.168
	C39.684,34.011,38.044,32.37,36.027,32.37"/>
<path fill="#FFFFFF" d="M72.054,36.027c0-3.856-3.901-7.372-10.984-9.902c-0.203-0.073-0.408-0.144-0.617-0.215
	c0.098-0.197,0.192-0.393,0.284-0.588c3.22-6.798,3.492-12.043,0.767-14.77c-2.728-2.727-7.973-2.455-14.771,0.765
	c-0.195,0.093-0.391,0.188-0.587,0.284c-0.07-0.207-0.144-0.413-0.215-0.616C43.401,3.901,39.884,0,36.027,0
	c-3.855,0-7.372,3.901-9.902,10.985c-0.073,0.203-0.144,0.409-0.215,0.616c-0.197-0.096-0.393-0.191-0.588-0.284
	c-6.798-3.22-12.043-3.492-14.77-0.765c-2.727,2.727-2.455,7.972,0.765,14.77c0.093,0.195,0.188,0.391,0.284,0.588
	c-0.207,0.071-0.413,0.142-0.616,0.215C3.901,28.655,0,32.171,0,36.027c0,3.855,3.901,7.373,10.985,9.902
	c0.203,0.072,0.409,0.145,0.616,0.216c-0.096,0.196-0.191,0.392-0.284,0.587c-3.22,6.798-3.492,12.044-0.765,14.77
	c1.245,1.246,3.013,1.865,5.216,1.865c2.622,0,5.859-0.88,9.554-2.63c0.195-0.093,0.391-0.187,0.588-0.284
	c0.071,0.207,0.142,0.414,0.215,0.616c2.53,7.084,6.047,10.985,9.902,10.985c3.857,0,7.374-3.901,9.903-10.984
	c0.071-0.203,0.145-0.41,0.215-0.617c0.196,0.098,0.392,0.191,0.587,0.284c3.697,1.751,6.932,2.63,9.555,2.63
	c2.202,0,3.973-0.619,5.217-1.865c2.726-2.726,2.453-7.972-0.767-14.77c-0.092-0.193-0.187-0.391-0.284-0.587
	c0.209-0.071,0.414-0.142,0.617-0.216C68.153,43.4,72.054,39.882,72.054,36.027 M47.732,13.427c3.391-1.606,6.316-2.421,8.547-2.421
	c1.557,0,2.773,0.397,3.573,1.197c1.948,1.947,1.502,6.365-1.226,12.119c-0.137,0.292-0.281,0.586-0.431,0.881
	c-2.862-0.824-6.028-1.479-9.399-1.945c-0.467-3.371-1.121-6.537-1.945-9.4C47.147,13.71,47.44,13.565,47.732,13.427 M47.31,36.027
	c0,1.563-0.037,3.105-0.11,4.628c-1.024,1.127-2.09,2.246-3.194,3.351s-2.224,2.17-3.351,3.195
	c-1.521,0.072-3.066,0.109-4.628,0.109c-1.561,0-3.106-0.037-4.628-0.109c-1.126-1.025-2.246-2.091-3.35-3.195
	s-2.17-2.224-3.194-3.351c-0.073-1.522-0.111-3.065-0.111-4.628c0-1.562,0.038-3.106,0.111-4.628c1.024-1.127,2.09-2.246,3.194-3.35
	s2.224-2.17,3.35-3.195c1.522-0.072,3.067-0.11,4.628-0.11c1.562,0,3.107,0.038,4.629,0.11c1.127,1.025,2.245,2.09,3.35,3.195
	c1.104,1.104,2.17,2.223,3.195,3.35C47.273,32.921,47.31,34.465,47.31,36.027 M45.657,26.398c-0.438-0.437-0.879-0.87-1.321-1.296
	c0.802,0.071,1.594,0.151,2.375,0.243c0.09,0.781,0.17,1.572,0.242,2.373C46.526,27.277,46.093,26.836,45.657,26.398 M41.602,22.566
	c-1.216-1.086-2.442-2.126-3.669-3.111c2.306-1.716,4.593-3.221,6.813-4.474c0.682,2.455,1.236,5.136,1.652,7.98
	C44.833,22.79,43.232,22.658,41.602,22.566 M37.878,22.427c-0.614-0.011-1.231-0.017-1.852-0.017c-0.619,0-1.235,0.006-1.849,0.017
	c0.615-0.516,1.232-1.019,1.849-1.507C36.644,21.408,37.261,21.911,37.878,22.427 M30.452,22.566
	c-1.629,0.092-3.231,0.224-4.795,0.395c0.416-2.844,0.97-5.525,1.653-7.98c2.219,1.253,4.507,2.758,6.811,4.474
	C32.894,20.44,31.668,21.48,30.452,22.566 M27.719,25.102c-0.442,0.426-0.883,0.859-1.32,1.296
	c-0.438,0.438-0.871,0.879-1.297,1.321c0.071-0.801,0.151-1.593,0.243-2.374C26.127,25.254,26.918,25.173,27.719,25.102
	 M22.566,30.452c-1.086,1.216-2.126,2.442-3.111,3.669c-1.716-2.304-3.221-4.593-4.474-6.811c2.455-0.683,5.136-1.237,7.981-1.653
	C22.791,27.221,22.659,28.823,22.566,30.452 M22.427,34.177c-0.011,0.615-0.017,1.231-0.017,1.85c0,0.619,0.006,1.236,0.017,1.85
	c-0.516-0.615-1.019-1.232-1.507-1.85C21.408,35.41,21.911,34.793,22.427,34.177 M22.566,41.602
	c0.093,1.629,0.225,3.231,0.396,4.796c-2.845-0.416-5.526-0.971-7.981-1.652c1.253-2.22,2.758-4.508,4.474-6.813
	C20.44,39.16,21.48,40.386,22.566,41.602 M25.102,44.335c0.426,0.442,0.859,0.883,1.297,1.32c0.437,0.438,0.878,0.87,1.32,1.297
	c-0.801-0.072-1.592-0.152-2.374-0.242C25.254,45.927,25.173,45.136,25.102,44.335 M30.452,49.488
	c1.217,1.086,2.442,2.126,3.669,3.112c-2.304,1.716-4.593,3.221-6.811,4.473c-0.683-2.454-1.237-5.136-1.653-7.979
	C27.221,49.263,28.823,49.396,30.452,49.488 M34.178,49.626c0.614,0.012,1.23,0.018,1.849,0.018c0.62,0,1.237-0.006,1.852-0.018
	c-0.618,0.518-1.234,1.021-1.852,1.508C35.41,50.647,34.793,50.144,34.178,49.626 M41.602,49.488
	c1.63-0.092,3.231-0.225,4.796-0.395c-0.416,2.844-0.971,5.525-1.652,7.979c-2.22-1.253-4.507-2.758-6.813-4.473
	C39.16,51.614,40.386,50.574,41.602,49.488 M44.335,46.953c0.442-0.427,0.883-0.859,1.321-1.297c0.437-0.438,0.869-0.878,1.296-1.32
	c-0.072,0.801-0.152,1.592-0.242,2.373C45.929,46.8,45.137,46.88,44.335,46.953 M49.488,41.602c1.086-1.216,2.126-2.442,3.112-3.669
	c1.716,2.305,3.221,4.593,4.473,6.813c-2.454,0.682-5.136,1.236-7.979,1.652C49.264,44.833,49.396,43.231,49.488,41.602
	 M49.626,37.876c0.012-0.613,0.018-1.23,0.018-1.85c0-0.619-0.006-1.235-0.018-1.85c0.518,0.616,1.021,1.233,1.508,1.85
	C50.647,36.644,50.144,37.261,49.626,37.876 M49.488,30.452c-0.092-1.629-0.224-3.231-0.395-4.795
	c2.844,0.416,5.525,0.97,7.979,1.653c-1.253,2.218-2.757,4.507-4.473,6.811C51.614,32.894,50.574,31.668,49.488,30.452
	 M28.323,11.77c2.142-5.997,4.95-9.436,7.704-9.436c2.755,0,5.563,3.439,7.705,9.436c0.107,0.304,0.213,0.614,0.316,0.927
	c-2.607,1.441-5.308,3.217-8.021,5.271c-2.713-2.054-5.414-3.83-8.022-5.271C28.109,12.384,28.215,12.074,28.323,11.77
	 M13.427,24.322c-2.725-5.754-3.171-10.172-1.224-12.119c0.8-0.801,2.017-1.197,3.572-1.197c2.231,0,5.158,0.815,8.548,2.421
	c0.291,0.138,0.585,0.283,0.88,0.431c-0.825,2.862-1.478,6.028-1.945,9.4c-3.372,0.466-6.537,1.12-9.4,1.945
	C13.71,24.908,13.565,24.614,13.427,24.322 M11.77,43.732c-5.996-2.143-9.436-4.95-9.436-7.705s3.44-5.562,9.436-7.704
	c0.304-0.108,0.614-0.214,0.927-0.318c1.442,2.608,3.217,5.308,5.271,8.022c-2.054,2.715-3.829,5.414-5.271,8.021
	C12.384,43.946,12.074,43.839,11.77,43.732 M24.323,58.628c-5.755,2.726-10.172,3.172-12.12,1.224
	c-1.947-1.948-1.501-6.366,1.224-12.12c0.138-0.291,0.283-0.585,0.431-0.88c2.863,0.823,6.029,1.478,9.4,1.944
	c0.467,3.371,1.12,6.537,1.945,9.4C24.908,58.343,24.614,58.489,24.323,58.628 M43.732,60.285c-2.143,5.996-4.95,9.436-7.705,9.436
	c-2.754,0-5.562-3.439-7.704-9.436c-0.108-0.305-0.214-0.615-0.318-0.928c2.608-1.439,5.309-3.217,8.022-5.271
	c2.714,2.055,5.414,3.832,8.021,5.271C43.946,59.669,43.839,59.98,43.732,60.285 M58.628,47.732
	c2.726,5.754,3.172,10.171,1.224,12.12c-1.948,1.948-6.366,1.502-12.12-1.226c-0.291-0.138-0.585-0.283-0.88-0.431
	c0.823-2.862,1.479-6.028,1.944-9.399c3.371-0.467,6.537-1.121,9.4-1.945C58.345,47.147,58.49,47.44,58.628,47.732 M54.085,36.027
	c2.055-2.714,3.83-5.414,5.271-8.022c0.313,0.104,0.624,0.21,0.928,0.318c5.997,2.142,9.436,4.949,9.436,7.704
	s-3.438,5.563-9.436,7.705c-0.304,0.107-0.615,0.213-0.928,0.316C57.916,41.441,56.14,38.742,54.085,36.027"/>
</svg>
