<?xml version="1.0" encoding="utf-8"?>
<!-- Generator: Adobe Illustrator 16.0.2, SVG Export Plug-In . SVG Version: 6.00 Build 0)  -->
<!DOCTYPE svg PUBLIC "-//W3C//DTD SVG 1.1//EN" "http://www.w3.org/Graphics/SVG/1.1/DTD/svg11.dtd">
<svg version="1.1" id="Layer_1" xmlns="http://www.w3.org/2000/svg" xmlns:xlink="http://www.w3.org/1999/xlink" x="0px" y="0px"
	 width="56.751px" height="88.324px" viewBox="0 0 56.751 88.324" enable-background="new 0 0 56.751 88.324" xml:space="preserve">
<path fill="#FFFFFF" d="M30.084,63.763c-2.083,1.73-4.524,2.396-7.107,3.033v0.947c0,3.551,0.004,7.1-0.003,10.648
	c-0.002,0.957-0.485,1.484-1.281,1.402c-0.843-0.086-1.08-0.635-1.077-1.416c0.016-3.672-0.008-7.344,0.021-11.016
	c0.005-0.645-0.19-0.992-0.731-1.395c-0.895-0.664-1.759-1.447-2.413-2.342c-1.658-2.273-3.193-4.631-4.772-6.961
	c-1.191-1.754-1.721-3.637-1.906-5.809c-0.186-2.162-1.045-4.314-1.881-6.359c-1.108-2.708-2.857-5.039-4.896-7.153
	c-1.144-1.187-2.265-2.41-3.261-3.72c-1.099-1.446-1.001-2.372,0.097-3.384c1.467-1.353,3.003-1.538,4.283-0.471
	c1.313,1.096,1.979,2.593,2.595,4.147c0.537,1.355,1.222,2.655,1.894,3.951c0.22,0.425,0.534,0.893,0.931,1.115
	c1.007,0.563,0.961,1.402,0.72,2.277c-0.416,1.516,0.152,2.912,0.32,4.66c0.529-0.475,0.861-0.758,1.177-1.057
	c0.665-0.629,1.286-1.311,1.992-1.888c0.684-0.557,1.442-0.575,2.2-0.04c0.396,0.28,0.827,0.53,1.275,0.715
	c0.746,0.307,1.14,0.027,1.057-0.782c-0.045-0.439-0.191-0.917-0.441-1.272c-0.404-0.574-0.331-1.051-0.001-1.604
	c0.422-0.707,0.839-1.424,1.175-2.174c0.775-1.729,0.835-3.436,0.342-5.337c-1.333-5.14-2.391-10.351-3.64-15.513
	c-0.551-2.277-1.31-4.506-1.958-6.762c-0.185-0.643-0.373-1.295-0.453-1.956c-0.14-1.132,0.12-2.16,1.195-2.764
	c1.139-0.641,2.325-0.744,3.479-0.02c1.988,1.25,3.295,5.359,2.48,7.579c-0.205,0.56-0.23,1.191-0.28,1.795
	c-0.134,1.58-0.189,3.168-0.363,4.743c-0.113,1.027-0.037,1.95,0.71,2.729c0.933,0.972,1.118,2.204,1.219,3.471
	c0.044,0.548,0.15,1.093,0.162,1.641c0.068,3.243,2.612,4.119,5.086,4.446c1.177,0.156,1.79-0.448,1.625-1.625
	c-0.246-1.748-0.647-3.478-1.043-5.2c-0.485-2.115-1.09-4.21-0.849-6.417c0.056-0.514,0.123-1.043,0.295-1.526
	c1.255-3.515,1.115-7.031-0.017-10.526c-0.572-1.77-0.59-3.443,0.24-5.137c0.865-1.767,1.892-1.949,3.029-0.324
	c2.055,2.934,3.089,6.142,2.275,9.781c-0.211,0.943-0.396,1.952-0.29,2.896c0.325,2.862-0.185,5.676-0.286,8.511
	c-0.094,2.567-0.103,5.139-0.087,7.706c0.008,1.156,0.57,1.779,1.612,2.044c0.873,0.224,1.401-0.025,1.543-0.918
	c0.343-2.141,0.624-4.293,0.888-6.444c0.591-4.813,0.487-9.645,0.383-14.478c-0.022-1.036,0.066-2.078,0.168-3.112
	c0.147-1.52,1.584-2.635,3.216-2.55c1.869,0.099,2.801,0.993,2.83,2.785c0.012,0.7-0.018,1.411-0.132,2.101
	c-0.708,4.214-1.461,8.42-2.159,12.636c-0.154,0.931-0.25,1.895-0.193,2.833c0.165,2.719-0.17,5.368-0.907,7.978
	c-0.264,0.934-0.232,1.789,0.469,2.571c0.272,0.305,0.387,0.754,0.568,1.139c0.397,0.84,0.876,1.059,1.688,0.602
	c0.547-0.309,1.059-0.734,1.478-1.204c1.49-1.675,2.435-3.661,3.035-5.801c0.387-1.377,0.633-2.794,1.007-4.177
	c0.254-0.94,0.626-1.849,0.936-2.775c0.644-1.935,1.323-3.858,1.905-5.813c0.408-1.369,0.778-1.655,2.168-1.336
	c2.866,0.662,4.183,3.577,2.733,6.149c-0.81,1.438-1.738,2.808-2.557,4.241c-1.138,1.988-2.063,4.063-2.618,6.309
	c-0.215,0.866-0.718,1.683-1.198,2.454c-0.687,1.104-0.759,2.182-0.572,3.483c0.24,1.667,0.21,3.425-0.02,5.099
	c-0.851,6.18-2.556,12.129-5.288,17.756c-0.965,1.986-2.087,3.873-3.691,5.439c-0.233,0.229-0.313,0.705-0.314,1.068
	c-0.022,3.428-0.02,6.855-0.004,10.281c0.003,0.73-0.206,1.275-0.986,1.416c-0.818,0.15-1.373-0.408-1.376-1.389
	c-0.009-3.061-0.005-6.119-0.003-9.18c0.001-1.35-0.383-1.791-1.912-2.078v0.998c0,6.027,0.002,12.057-0.004,18.084
	c0,0.455,0.07,0.971-0.114,1.35c-0.167,0.346-0.639,0.756-0.969,0.75c-0.334-0.006-0.74-0.438-0.96-0.781
	c-0.157-0.246-0.072-0.654-0.072-0.988c-0.004-6.672-0.013-13.342,0.01-20.012c0.002-0.598-0.158-0.947-0.698-1.223
	C31.888,64.845,31.004,64.294,30.084,63.763 M28.144,44.841c0-0.887-0.054-1.78,0.017-2.661c0.055-0.692-0.32-0.892-0.855-1.067
	c-0.579-0.19-0.855,0.101-1.074,0.561c-0.708,1.488-1.521,2.943-1.032,4.707c0.103,0.367,0.097,0.814-0.007,1.182
	c-0.379,1.342,0.1,2.381,1.01,3.32c0.274,0.283,0.426,0.691,0.714,0.951c1.06,0.953,2.098,1.945,3.25,2.773
	c0.805,0.576,1.614,0.242,2.143-0.596c0.155-0.248,0.378-0.516,0.634-0.629c1.093-0.48,1.541-1.406,1.86-2.467
	c0.421-1.398,0.922-2.775,1.321-4.178c0.107-0.377,0.076-0.861-0.065-1.227c-0.318-0.822-0.698-1.633-1.148-2.389
	c-0.254-0.427-0.647-0.822-1.069-1.084c-0.645-0.4-1.377-0.657-2.056-1.004c-0.952-0.486-2.244,0.209-2.139,1.388
	c0.138,1.548,0.055,3.119,0.024,4.677c-0.011,0.627,0.208,1.572-0.765,1.559c-0.847-0.012-0.745-0.891-0.757-1.521
	C28.136,46.37,28.146,45.606,28.144,44.841"/>
</svg>
