<?xml version="1.0" encoding="utf-8"?>
<!-- Generator: Adobe Illustrator 16.0.2, SVG Export Plug-In . SVG Version: 6.00 Build 0)  -->
<!DOCTYPE svg PUBLIC "-//W3C//DTD SVG 1.1//EN" "http://www.w3.org/Graphics/SVG/1.1/DTD/svg11.dtd">
<svg version="1.1" id="Layer_1" xmlns="http://www.w3.org/2000/svg" xmlns:xlink="http://www.w3.org/1999/xlink" x="0px" y="0px"
	 width="55.838px" height="76.849px" viewBox="0 0 55.838 76.849" enable-background="new 0 0 55.838 76.849" xml:space="preserve">
<path fill="#FFFFFF" d="M32.111,0c2.658,1.667,3.029,2.399,2.821,5.569c3.654-0.349,4.803,0.587,5.539,4.429
	c0.058,0.303,0.418,0.63,0.721,0.79c1.578,0.838,2.273,2.158,2.297,3.903c0.014,0.995,2.068,2.953,3.084,2.973
	c3.404,0.07,5.198,3.278,3.497,6.254c-0.555,0.971,0.146,3.243,1.15,3.729c1.966,0.952,2.794,2.662,2.385,4.806
	c-0.073,0.383-0.081,0.904,0.12,1.195c1.677,2.426,1.723,3.504,0.056,6.09c1.888,1.817,2.127,4.196,2.042,6.701
	c-0.07,2.046,0.021,4.097-0.031,6.144c-0.08,3.223-2.07,5.684-5.164,6.551c-0.483,0.135-0.897,0.5-1.359,0.727
	c-0.559,0.273-1.294,0.854-1.659,0.682c-0.446-0.213-0.821-1.066-0.823-1.644c-0.019-5.294,0.054-10.589,0.09-15.882
	c0.014-1.897,0.028-3.797-0.004-5.694c-0.092-5.459-3.511-8.862-8.947-8.879c-6.645-0.022-13.287-0.024-19.932,0
	c-5.539,0.021-9.003,3.431-9.031,8.948C8.93,44.034,8.847,50.68,9.021,57.32c0.239,9.062,7.718,16.362,16.782,16.706
	c4.881,0.186,9.646-0.156,13.667-3.287c1.628-1.27,2.953-2.932,4.392-4.438c0.305-0.32,0.423-0.89,0.771-1.082
	c0.574-0.317,1.396-0.742,1.883-0.547c0.902,0.36,0.788,1.252,0.32,2.035c-2.158,3.617-5.11,6.387-8.954,8.12
	c-7.203,3.247-19.86,3.289-26.821-5.19c-2.199-2.676-3.741-5.653-4.396-9.051c-0.163-0.854-0.454-1.252-1.335-1.469
	c-3.305-0.816-5.241-3.307-5.301-6.714c-0.038-2.247,0.041-4.497-0.024-6.743c-0.066-2.242,0.424-4.259,2.049-5.938
	c-1.552-2.07-1.784-4.091,0.073-6.1c0.196-0.213,0.186-0.717,0.12-1.057c-0.44-2.315,0.326-3.885,2.371-4.95
	c0.36-0.187,0.632-0.634,0.833-1.019c0.296-0.567,0.541-1.173,0.712-1.789c0.115-0.415,0.211-0.934,0.065-1.308
	c-1.2-3.059,0.518-5.742,3.775-5.823c1.062-0.026,3-2.063,3.022-3.128c0.035-1.667,0.704-2.966,2.221-3.792
	c0.342-0.185,0.775-0.526,0.834-0.854c0.656-3.697,1.97-4.751,5.615-4.287C21.072,2.91,22.079,1.038,24.617,0H32.111z M6.141,40.561
	c-2.125,0.589-3.274,1.85-3.358,3.787c-0.123,2.789-0.119,5.591-0.003,8.379c0.086,2.072,1.409,3.383,3.361,3.601V40.561z
	 M49.667,56.393c1.989-0.365,3.246-1.518,3.344-3.43c0.146-2.928,0.15-5.873,0.003-8.799c-0.103-2-1.514-3.252-3.347-3.343V56.393z
	 M46.759,19.807c-0.658,0.866-1.356,1.387-1.313,1.837c0.047,0.496,0.775,0.927,1.207,1.387c0.451-0.432,1.191-0.82,1.267-1.311
	C47.989,21.271,47.343,20.71,46.759,19.807 M49.634,29.491c-0.592,0.88-1.256,1.436-1.198,1.903
	c0.059,0.474,0.837,1.195,1.288,1.187c0.434-0.007,1.159-0.79,1.19-1.271C50.946,30.843,50.262,30.328,49.634,29.491 M48.186,27.139
	c-0.855-0.619-1.383-1.298-1.853-1.26c-0.478,0.04-1.239,0.78-1.246,1.222c-0.007,0.443,0.734,1.21,1.209,1.259
	C46.767,28.409,47.312,27.742,48.186,27.139 M11.393,27.165c-0.87-0.636-1.397-1.319-1.858-1.277
	c-0.488,0.045-0.916,0.779-1.369,1.212c0.437,0.452,0.832,1.202,1.322,1.269C9.942,28.432,10.498,27.767,11.393,27.165
	 M31.018,2.177c-0.62,0.856-1.287,1.374-1.254,1.843c0.033,0.481,0.753,0.913,1.172,1.366c0.459-0.425,1.227-0.811,1.289-1.287
	C32.284,3.635,31.62,3.077,31.018,2.177 M38.284,9.465c-0.887-0.597-1.44-1.259-1.91-1.204c-0.469,0.055-1.179,0.827-1.18,1.285
	c-0.001,0.422,0.782,1.15,1.257,1.18C36.922,10.757,37.438,10.086,38.284,9.465 M14.374,26.598c0.594-0.867,1.246-1.403,1.196-1.864
	c-0.051-0.484-0.79-1.258-1.203-1.243c-0.465,0.018-1.216,0.746-1.262,1.221C13.06,25.179,13.742,25.717,14.374,26.598
	 M6.253,33.235c0.563-0.905,1.206-1.487,1.123-1.933c-0.09-0.487-0.854-0.849-1.323-1.266c-0.41,0.468-1.12,0.923-1.142,1.408
	C4.891,31.907,5.589,32.401,6.253,33.235 M43.363,24.62c-0.898-0.564-1.467-1.202-1.935-1.135c-0.469,0.067-1.176,0.856-1.152,1.295
	c0.023,0.443,0.805,1.159,1.275,1.176C42.025,25.973,42.525,25.278,43.363,24.62 M41.747,21.175
	c0.656-0.848,1.354-1.357,1.328-1.827c-0.025-0.477-0.75-1.25-1.2-1.273c-0.432-0.023-1.207,0.707-1.274,1.186
	C40.534,19.722,41.179,20.285,41.747,21.175 M9.833,19.825C9.212,20.711,8.53,21.26,8.59,21.714c0.063,0.49,0.817,0.891,1.271,1.33
	c0.429-0.45,1.151-0.87,1.202-1.36C11.11,21.226,10.445,20.694,9.833,19.825 M35.579,14.198c-0.872-0.604-1.407-1.264-1.878-1.219
	c-0.472,0.045-1.226,0.796-1.218,1.228c0.008,0.453,0.745,1.207,1.214,1.249C34.169,15.496,34.703,14.821,35.579,14.198
	 M32.862,9.491c-0.884-0.611-1.427-1.277-1.897-1.229c-0.467,0.047-1.185,0.809-1.189,1.265c-0.005,0.423,0.761,1.161,1.232,1.197
	C31.478,10.761,32.003,10.101,32.862,9.491 M30.145,14.284c-0.843-0.646-1.347-1.33-1.813-1.305
	c-0.474,0.027-1.253,0.74-1.267,1.172c-0.013,0.45,0.684,1.233,1.152,1.3C28.68,15.516,29.242,14.868,30.145,14.284 M27.449,18.952
	c-0.881-0.625-1.399-1.279-1.856-1.238c-0.476,0.042-1.235,0.758-1.235,1.179c0,0.448,0.705,1.199,1.174,1.259
	C25.988,20.21,26.535,19.561,27.449,18.952 M22.042,18.995c-0.909-0.652-1.401-1.274-1.899-1.28
	c-0.429-0.005-1.253,0.742-1.211,1.069c0.065,0.523,0.645,1.273,1.118,1.366C20.49,20.237,21.075,19.593,22.042,18.995 M17,12.431
	c-0.596,0.957-1.244,1.54-1.165,1.996c0.081,0.468,0.846,1.058,1.367,1.121c0.332,0.041,1.085-0.787,1.077-1.214
	C18.271,13.827,17.646,13.332,17,12.431 M35.95,22.466c-0.56,0.925-1.182,1.496-1.102,1.94c0.088,0.485,0.825,0.853,1.279,1.272
	c0.414-0.466,1.12-0.91,1.158-1.405C37.321,23.828,36.624,23.325,35.95,22.466 M19.82,26.254c0.585-0.902,1.218-1.448,1.162-1.912
	c-0.056-0.473-0.806-1.216-1.223-1.197c-0.452,0.021-1.178,0.76-1.216,1.231C18.507,24.843,19.179,25.366,19.82,26.254
	 M31.001,20.809c0.612-0.896,1.272-1.441,1.22-1.903c-0.055-0.467-0.812-1.176-1.267-1.18c-0.421-0.004-1.148,0.759-1.188,1.231
	C29.728,19.42,30.385,19.941,31.001,20.809 M39.456,12.564c-0.621,0.864-1.299,1.397-1.244,1.842
	c0.059,0.491,0.787,0.902,1.225,1.349c0.446-0.442,1.181-0.844,1.251-1.339C40.749,13.978,40.071,13.434,39.456,12.564
	 M24.702,14.289c-0.834-0.647-1.335-1.336-1.796-1.311c-0.473,0.026-1.25,0.74-1.263,1.173c-0.016,0.449,0.68,1.229,1.148,1.299
	C23.247,15.519,23.81,14.869,24.702,14.289 M27.419,9.604c-0.844-0.67-1.343-1.372-1.802-1.346
	c-0.473,0.026-1.229,0.735-1.264,1.191c-0.032,0.421,0.68,1.198,1.151,1.273C25.956,10.793,26.52,10.165,27.419,9.604
	 M16.561,19.209c-0.897-0.575-1.46-1.218-1.904-1.144c-0.479,0.08-1.196,0.851-1.17,1.281c0.028,0.451,0.79,1.153,1.277,1.193
	C15.208,20.576,15.714,19.874,16.561,19.209 M27.417,4.159c-0.838-0.661-1.338-1.36-1.801-1.336
	c-0.471,0.025-1.235,0.741-1.262,1.19c-0.026,0.433,0.68,1.215,1.148,1.286C25.958,5.369,26.521,4.73,27.417,4.159 M34.516,18.943
	c0.902,0.616,1.455,1.283,1.901,1.219c0.491-0.07,0.886-0.814,1.321-1.265c-0.452-0.422-0.873-1.131-1.364-1.183
	C35.923,17.666,35.396,18.324,34.516,18.943 M4.923,38.547c0.587-0.911,1.231-1.473,1.167-1.934
	c-0.067-0.474-0.827-0.851-1.284-1.27c-0.413,0.452-1.127,0.887-1.155,1.362C3.623,37.175,4.288,37.685,4.923,38.547 M51.02,38.577
	c0.593-0.954,1.181-1.486,1.159-1.992c-0.02-0.431-0.823-1.223-1.132-1.157c-0.525,0.11-1.243,0.732-1.304,1.21
	C49.687,37.095,50.366,37.644,51.02,38.577 M30.551,22.423c-0.578,0.968-1.163,1.515-1.124,2.013
	c0.035,0.442,0.859,1.227,1.164,1.152c0.519-0.126,1.197-0.77,1.258-1.264C31.902,23.879,31.218,23.344,30.551,22.423
	 M25.192,26.296c0.624-0.943,1.229-1.461,1.222-1.97c-0.005-0.43-0.783-1.236-1.11-1.184c-0.514,0.082-1.237,0.701-1.306,1.175
	C23.933,24.777,24.578,25.34,25.192,26.296 M20.064,11.438c0.653-0.931,1.326-1.473,1.269-1.921
	c-0.063-0.492-0.744-1.134-1.263-1.253c-0.306-0.071-1.12,0.722-1.153,1.167C18.881,9.927,19.473,10.468,20.064,11.438"/>
<path fill="#FFFFFF" d="M27.896,64.422c-0.947,0-1.9,0.061-2.843-0.012c-2.508-0.195-4.505-2.146-4.665-4.471
	c-0.061-0.879,0.09-1.78,1.101-1.739c0.534,0.021,1.307,0.679,1.51,1.222c0.691,1.854,1.149,2.299,3.113,2.319
	c1.297,0.013,2.596,0.03,3.893-0.009c1.344-0.041,2.287-0.653,2.553-2.053c0.188-0.988,0.585-1.81,1.758-1.5
	c1.158,0.307,1.066,1.271,0.877,2.205c-0.448,2.227-2.264,3.846-4.602,4.026C29.698,64.481,28.795,64.422,27.896,64.422"/>
<path fill="#FFFFFF" d="M12.623,44.461c0.671,0.251,1.479,0.342,1.987,0.781c1.938,1.678,4.029,1.867,6.242,0.798
	c1.071-0.517,2.074-0.481,2.96,0.124c0.463,0.314,0.633,1.059,0.935,1.609c-0.55,0.301-1.07,0.705-1.658,0.875
	c-0.686,0.197-1.47,0.074-2.145,0.295c-2.597,0.851-4.987,0.566-7.251-0.994c-0.456-0.314-1.063-0.521-1.617-0.563
	c-0.999-0.076-1.871-0.275-1.816-1.47c0.05-1.104,0.911-1.296,1.841-1.261c0.149,0.005,0.3,0,0.449,0
	C12.574,44.591,12.599,44.526,12.623,44.461"/>
<path fill="#FFFFFF" d="M37.838,49.579c-1.083-0.258-1.945-0.5-2.821-0.659c-0.709-0.128-1.467-0.056-2.147-0.259
	c-0.584-0.174-1.329-0.502-1.548-0.973c-0.149-0.322,0.354-1.207,0.792-1.49c0.885-0.568,1.874-0.725,2.961-0.192
	c2.259,1.106,4.31,0.825,6.401-0.757c0.818-0.617,2.325-0.413,3.514-0.389c0.273,0.006,0.766,0.842,0.727,1.256
	c-0.04,0.418-0.632,1.139-0.945,1.121c-1.479-0.088-2.474,0.856-3.672,1.394C40.031,49.11,38.834,49.3,37.838,49.579"/>
<path fill="#FFFFFF" d="M27.63,65.7c1.077,0.461,2.112,0.732,2.918,1.318c0.402,0.293,0.386,1.16,0.56,1.766
	c-0.599,0.168-1.351,0.65-1.766,0.445c-1.252-0.615-2.299-0.586-3.51,0.098c-0.371,0.209-1.467-0.088-1.597-0.409
	c-0.197-0.489-0.052-1.493,0.32-1.761C25.445,66.52,26.55,66.186,27.63,65.7"/>
<path fill="#FFFFFF" d="M40.996,43.418c-0.609,0.307-1.19,0.721-1.835,0.893c-0.712,0.191-1.488,0.244-2.229,0.205
	c-0.617-0.033-1.224-0.285-1.835-0.44c0.188-0.638,0.178-1.498,0.599-1.871c1.168-1.034,2.602-1.14,4.051-0.513
	c0.545,0.234,1.074,0.506,1.61,0.76C41.237,42.774,41.116,43.096,40.996,43.418"/>
<path fill="#FFFFFF" d="M18.002,41.086c0.868,0.41,1.799,0.68,2.486,1.246c0.361,0.295,0.563,1.26,0.346,1.646
	c-0.214,0.381-1.043,0.546-1.61,0.568c-0.835,0.035-1.693-0.074-2.513-0.254c-0.479-0.105-1.16-0.373-1.288-0.732
	c-0.157-0.441-0.012-1.28,0.322-1.543C16.325,41.559,17.15,41.413,18.002,41.086"/>
<path fill="#FFFFFF" d="M27.779,42.1c-0.615-0.863-1.289-1.396-1.248-1.867c0.042-0.469,0.8-1.207,1.249-1.211
	c0.436-0.004,1.191,0.746,1.232,1.215C29.055,40.708,28.387,41.241,27.779,42.1"/>
</svg>
