<?xml version="1.0" encoding="utf-8"?>
<!-- Generator: Adobe Illustrator 16.0.2, SVG Export Plug-In . SVG Version: 6.00 Build 0)  -->
<!DOCTYPE svg PUBLIC "-//W3C//DTD SVG 1.1//EN" "http://www.w3.org/Graphics/SVG/1.1/DTD/svg11.dtd">
<svg version="1.1" id="Layer_1" xmlns="http://www.w3.org/2000/svg" xmlns:xlink="http://www.w3.org/1999/xlink" x="0px" y="0px"
	 width="66.937px" height="67.869px" viewBox="0 0 66.937 67.869" enable-background="new 0 0 66.937 67.869" xml:space="preserve">
<path fill="#FFFFFF" d="M34.062,0c0.534,0.159,1.066,0.318,1.599,0.478c3.563,1.068,6.284,4.237,6.608,7.89
	c0.356,4.008-1.055,7.227-4.635,9.272c-6.977,3.982-13.978,7.922-20.97,11.878c-0.384,0.217-0.778,0.416-1.316,0.702
	c-1.002-1.291-2-2.575-3.037-3.91c2.081-1.372,3.026-3.182,2.491-5.55c-0.445-1.97-1.675-3.314-3.682-3.766
	c-1.992-0.448-3.681,0.192-4.974,1.756c-1.317,1.592-1.471,3.377-0.596,5.216c0.325,0.683,0.802,1.306,1.272,1.908
	c6.295,8.046,12.584,16.098,18.916,24.114c1.698,2.15,3.306,4.301,3.395,7.395c0.503-0.279,0.84-0.447,1.156-0.646
	c5.735-3.623,11.472-7.24,17.199-10.875c3.349-2.127,3.761-4.768,1.269-7.892c-0.218-0.271-0.41-0.563-0.615-0.849
	c1.66-0.572,3.244-1.116,4.847-1.668c3.885,3.767,2.95,10.857-1.95,14.056c-3.719,2.427-7.499,4.761-11.255,7.134
	c-4.677,2.953-9.313,5.973-14.054,8.819c-1.698,1.019-3.649,1.616-5.485,2.407h-2.181c-1.548-0.643-3.259-1.045-4.614-1.969
	c-5.767-3.931-5.518-13.094,0.421-16.377c0.975,1.254,1.958,2.519,2.972,3.82c-0.352,0.28-0.637,0.493-0.906,0.725
	c-2.868,2.471-1.974,7.221,1.594,8.48c2.043,0.721,4.351,0.025,5.634-1.699c1.373-1.846,1.402-4.188-0.043-6.07
	c-2.703-3.521-5.456-7.004-8.195-10.498C10.769,38.977,6.585,33.69,2.446,28.371c-4.33-5.563-2.756-12.503,3.503-15.679
	c4.39-2.227,8.727-4.56,13.155-6.707C23.334,3.933,27.255,1.21,31.88,0H34.062z M19.975,21.957c0.408-0.206,0.624-0.304,0.83-0.421
	c4.67-2.645,9.345-5.282,14.005-7.944c2.49-1.423,3.266-3.948,1.976-6.269c-1.249-2.248-3.78-2.896-6.294-1.609
	c-3.411,1.748-6.823,3.494-10.232,5.246c-1.564,0.803-3.122,1.617-4.843,2.509C18.381,15.571,19.786,18.36,19.975,21.957"/>
<path fill="#FFFFFF" d="M53.219,25.446c1.362,0.227,2.55,0.425,3.93,0.655c-2.927,3.535-5.881,6.756-10.866,6.912
	c-0.459,0.014-1.076,0.35-1.328,0.729c-1.041,1.582-2.06,3.191-2.912,4.879c-0.578,1.148-1.354,1.824-2.59,2.068
	c-0.614,0.121-1.211,0.342-2.018,0.576c3.176-6.173,6.709-11.825,10.953-17.027c-0.078-0.077-0.156-0.154-0.234-0.231
	c-2.262,2.001-4.523,4.002-6.783,6.001c-2.383-3.735-0.52-9.788,3.74-13.195c0.311,1.049,0.625,2.11,0.939,3.171
	c0.718-2.115,0.332-4.551,2.143-6.105c1.629-1.399,3.492-2.526,5.377-3.861c0.116,1.292,0.204,2.274,0.293,3.255
	c0.086,0.011,0.17,0.02,0.256,0.03c0.235-0.694,0.492-1.381,0.701-2.083c0.441-1.481,1.336-2.478,2.772-3.136
	c2.899-1.331,5.88-2.158,9.345-2.052c-0.419,1.482-0.779,2.822-1.18,4.149c-0.188,0.616-0.483,1.198-0.682,1.811
	c-0.896,2.761-2.639,4.555-5.602,4.997c-0.177,0.026-0.341,0.139-0.495,0.433c0.972,0.097,1.943,0.193,3.149,0.313
	c-0.528,1.042-1.109,1.981-1.497,2.994c-1.097,2.862-3.378,3.923-6.188,4.252c-0.279,0.032-0.555,0.094-0.828,0.157
	C53.544,25.155,53.49,25.232,53.219,25.446"/>
<path fill="#FFFFFF" d="M22.768,39.439c-0.786-1.078-1.488-2.041-2.283-3.131c4.967-2.916,9.815-5.763,14.813-8.697
	c0.772,0.995,1.545,1.991,2.387,3.076C32.685,33.622,27.795,36.49,22.768,39.439"/>
<path fill="#FFFFFF" d="M35.246,36.934c-0.945,1.857-1.868,3.727-2.856,5.561c-0.192,0.355-0.604,0.628-0.969,0.85
	c-1.266,0.771-2.556,1.504-3.94,2.309c-0.763-1.041-1.489-2.033-2.285-3.121c3.35-1.965,6.603-3.873,9.855-5.782
	C35.115,36.811,35.181,36.872,35.246,36.934"/>
</svg>
