<?xml version="1.0" encoding="utf-8"?>
<!-- Generator: Adobe Illustrator 16.0.2, SVG Export Plug-In . SVG Version: 6.00 Build 0)  -->
<!DOCTYPE svg PUBLIC "-//W3C//DTD SVG 1.1//EN" "http://www.w3.org/Graphics/SVG/1.1/DTD/svg11.dtd">
<svg version="1.1" id="Layer_1" xmlns="http://www.w3.org/2000/svg" xmlns:xlink="http://www.w3.org/1999/xlink" x="0px" y="0px"
	 width="61.582px" height="58.308px" viewBox="0 0 61.582 58.308" enable-background="new 0 0 61.582 58.308" xml:space="preserve">
<path fill="#FFFFFF" d="M28.355,41.444c0,5.025-0.053,10.049,0.033,15.07c0.025,1.428-0.438,1.764-1.794,1.746
	c-5.685-0.07-11.369-0.023-17.054-0.035c-2.197-0.006-2.661-0.473-2.688-2.68c-0.021-1.783,0.002-3.568-0.008-5.354
	c-0.007-1.242,0.594-1.943,1.804-2.219c0.898-0.205,1.756-0.627,2.659-0.754c2.934-0.41,3.694-3.096,5.096-4.984
	c1.018-1.371-0.276-4.363-1.912-5.42c-0.151-0.098-0.325-0.205-0.413-0.354c-1.716-2.93-1.731-3.037-5.315-2.43
	c-1.634,0.277-2.046-0.119-1.943-1.689c0.121-1.844,0.041-3.7,0.034-5.551c-0.006-1.458,0.673-2.209,2.162-2.208
	c6.015,0.007,12.03,0.038,18.045-0.02c1.314-0.014,1.307,0.678,1.304,1.611C28.347,31.266,28.355,36.354,28.355,41.444"/>
<path fill="#FFFFFF" d="M33.34,41.364c0-5.018,0.047-10.035-0.03-15.052c-0.021-1.406,0.439-1.771,1.798-1.755
	c5.743,0.068,11.488,0.063,17.232,0.011c1.787-0.017,2.539,0.771,2.522,2.485c-0.021,1.981-0.057,3.963,0.007,5.942
	c0.035,1.088-0.269,1.359-1.361,1.109c-1.082-0.246-2.227-0.291-3.344-0.287c-1.323,0.004-2.282,0.586-2.49,2.035
	c-0.044,0.307-0.135,0.854-0.256,0.867c-2.826,0.35-1.794,2.803-2.363,4.352c-0.137,0.371-0.042,1.018,0.211,1.313
	c1.67,1.959,2.664,4.697,5.744,5.086c0.713,0.09,1.404,0.352,2.109,0.521c1.099,0.264,1.716,0.938,1.725,2.082
	c0.018,1.98,0.022,3.963-0.002,5.943c-0.018,1.541-0.808,2.232-2.373,2.225c-5.876-0.031-11.752-0.045-17.628,0.014
	c-1.279,0.014-1.538-0.5-1.528-1.639c0.043-5.084,0.02-10.168,0.02-15.252H33.34z"/>
<path fill="#FFFFFF" d="M30.029,0.035c1.727-0.117,3.436,0.073,5.129,0.354C41.057,1.37,45.156,5.227,46.514,11.1
	c0.832,3.597,0.723,7.205-0.014,10.811c-0.18,0.875-0.485,1.496-1.544,1.322c-1.348-0.223-0.522-1.07-0.468-1.658
	c0.066-0.72,0.249-1.43,0.359-2.147c0.561-3.652,0.028-4.582-3.484-5.915c-3.502-1.328-7.218-1.508-10.882-1.961
	c-0.393-0.049-0.789-0.077-1.183-0.122c-5.302-0.61-7.251-2.878-7.161-8.217c0.03-1.761,1.146-2.438,2.575-2.771
	C26.454,0.033,28.241-0.053,30.029,0.035"/>
<path fill="#FFFFFF" d="M49.193,43.249c-0.717-0.262-1.344-0.459-1.943-0.719c-0.515-0.225-1.08-0.797-0.743-1.193
	c0.696-0.82,0.426-1.408,0.217-2.309c-0.219-0.941,0.834-0.896,1.587-0.777c1.815,0.289,3.61,0.803,5.704,0.547
	c-1.043-1.096-2.239-1.385-3.489-1.611c-0.706-0.127-1.589-0.293-1.43-1.273c0.141-0.871,0.985-0.652,1.625-0.705
	c3.283-0.268,5.759,1.605,8.348,3.156c0.597,0.357,0.786,1.027,0.989,1.664c0.357,1.131,0.676,2.281,1.139,3.369
	c1.057,2.479-0.128,5.072-2.715,5.887c-0.992,0.313-1.843-0.203-2.303-0.766c-1.188-1.459-2.758-1.898-4.444-2.273
	c-0.764-0.17-1.492-0.52-2.221-0.824C48.329,44.926,47.792,44.272,49.193,43.249"/>
<path fill="#FFFFFF" d="M7.471,38.754c1.951,0.342,3.819-0.201,5.709-0.436c0.63-0.078,1.344-0.463,1.807,0.262
	c0.414,0.648,0.035,1.113-0.547,1.438c-0.355,0.199-0.247,0.396-0.003,0.57c2.327,1.658,0.132,1.773-0.798,2.256
	c-0.498,0.258-1.08,0.357-1.681,0.545c0.48,0.406,1.418,0.004,1.474,0.813c0.055,0.809-0.711,1.041-1.313,1.275
	c-0.918,0.359-1.844,0.725-2.799,0.953c-1.298,0.313-2.419,0.695-3.37,1.816c-0.985,1.16-2.344,1.557-3.823,0.391
	c-1.849-1.457-2.543-2.904-1.881-4.48c0.281-0.67,0.617-1.316,0.854-1.998c1.554-4.469,5.185-7.023,9.925-6.932
	c0.676,0.014,1.624-0.25,1.687,0.83c0.048,0.832-0.742,1.043-1.393,1.113C9.901,37.327,8.699,38.018,7.471,38.754"/>
<path fill="#FFFFFF" d="M32.375,41.471c0,5.023-0.021,10.045,0.016,15.068c0.008,1.145-0.098,1.785-1.565,1.768
	c-1.45-0.016-1.585-0.635-1.584-1.797c0.017-10.111,0.015-20.223-0.042-30.333c-0.008-1.352,0.506-1.604,1.742-1.648
	c1.396-0.05,1.459,0.642,1.453,1.677c-0.022,5.09-0.01,10.178-0.01,15.266H32.375z"/>
<path fill="#FFFFFF" d="M14.466,15.253c0.353-4.274,1.29-8.003,3.756-11.201c0.563-0.73,1.205-1.524,2.273-1.272
	c1.227,0.29,0.866,1.441,1.084,2.287c1.007,3.916-0.491,7.046-3.307,9.538c-1.409,1.247-1.653,2.548-1.399,4.18
	c0.151,0.976,0.332,1.948,0.471,2.926c0.078,0.561,0.735,1.318-0.435,1.524c-0.984,0.173-1.487-0.296-1.605-1.248
	C15.011,19.634,14.719,17.282,14.466,15.253"/>
</svg>
