<?xml version="1.0" encoding="utf-8"?>
<!-- Generator: Adobe Illustrator 16.0.2, SVG Export Plug-In . SVG Version: 6.00 Build 0)  -->
<!DOCTYPE svg PUBLIC "-//W3C//DTD SVG 1.1//EN" "http://www.w3.org/Graphics/SVG/1.1/DTD/svg11.dtd">
<svg version="1.1" id="Layer_1" xmlns="http://www.w3.org/2000/svg" xmlns:xlink="http://www.w3.org/1999/xlink" x="0px" y="0px"
	 width="65.706px" height="65.744px" viewBox="0 0 65.706 65.744" enable-background="new 0 0 65.706 65.744" xml:space="preserve">
<path fill="#FFFFFF" d="M30.023,0h5.132c0.331,0.07,0.658,0.173,0.992,0.206c6.888,0.688,13.077,3.197,18.136,7.873
	c10.66,9.851,14.06,21.86,9.351,35.701c-1.323,3.891-2.278,7.623-2.171,11.753c0.108,4.151-2.851,6.8-7.006,6.853
	c-1.667,0.022-3.336,0.062-5-0.012c-1.53-0.066-2.917,0.268-4.331,0.856c-6.085,2.536-12.432,3.226-18.834,1.737
	C13.217,61.926,4.779,53.838,1.065,40.918C0.55,39.129,0.348,37.25,0,35.411v-5.132c0.209-1.253,0.354-2.521,0.637-3.757
	C3.682,13.224,11.797,4.726,24.912,1.025C26.579,0.555,28.318,0.336,30.023,0 M27.871,4.469c0,7.152,0.004,13.989-0.001,20.825
	c-0.002,2.467-0.673,3.144-3.104,3.146c-6.244,0.004-12.487,0.001-18.731,0.001H4.5v8.81h1.649c6.157,0,12.315-0.002,18.474,0
	c2.62,0,3.246,0.627,3.247,3.262c0.004,6.33,0.002,12.66,0.002,18.988v1.686h9.948v-1.785c0-6.286-0.002-12.572,0.001-18.859
	c0.001-2.707,0.597-3.291,3.344-3.291c6.159-0.002,12.317,0,18.476,0h1.56v-8.81h-1.651c-6.199,0-12.4,0.002-18.602-0.001
	c-2.443-0.001-3.123-0.677-3.125-3.125c-0.006-6.543-0.001-13.086-0.004-19.629c0-0.328-0.032-0.656-0.063-1.217H27.871z
	 M42.142,44.096v15.771c0.646-0.23,1.247-0.346,1.742-0.639c1.578-0.932,3.275-1.102,5.059-1.037
	c1.835,0.064,3.673,0.037,5.51,0.003c1.162-0.021,2.165-0.366,2.596-1.702C52.113,52.389,47.207,48.309,42.142,44.096 M23.579,5.794
	c-4.69,1.639-8.509,4.21-11.83,7.747c3.959,2.957,7.823,5.842,11.83,8.835V5.794z M23.549,43.318
	c-3.858,3.181-7.559,6.231-11.266,9.288c3.134,3.332,8.021,6.417,11.266,7.125V43.318z M42.145,21.811
	c3.888-2.95,7.619-5.782,11.397-8.648c-3.364-3.402-7.019-5.858-11.397-7.296V21.811z M45.735,41.577
	c3.938,3.276,7.615,6.336,11.292,9.395c0.103-0.014,0.206-0.029,0.309-0.045c-0.858-3.623,2.092-6.086,2.627-9.35H45.735z
	 M46.145,24.093H60.32c-1.348-2.686-2.592-5.164-3.909-7.789C52.882,18.981,49.637,21.443,46.145,24.093 M9.377,49.512
	c3.295-2.719,6.325-5.217,9.567-7.891H5.364C6.757,44.361,8.034,46.872,9.377,49.512 M18.841,24.122
	c-3.423-2.558-6.544-4.89-9.888-7.388c-1.21,2.509-2.342,4.857-3.562,7.388H18.841z"/>
</svg>
