<?xml version="1.0" encoding="utf-8"?>
<!-- Generator: Adobe Illustrator 16.0.2, SVG Export Plug-In . SVG Version: 6.00 Build 0)  -->
<!DOCTYPE svg PUBLIC "-//W3C//DTD SVG 1.1//EN" "http://www.w3.org/Graphics/SVG/1.1/DTD/svg11.dtd">
<svg version="1.1" id="Layer_1" xmlns="http://www.w3.org/2000/svg" xmlns:xlink="http://www.w3.org/1999/xlink" x="0px" y="0px"
	 width="79.402px" height="65.558px" viewBox="0 0 79.402 65.558" enable-background="new 0 0 79.402 65.558" xml:space="preserve">
<path fill="#FFFFFF" d="M31.988,37.132c0,2.773-2.25,5.023-5.027,5.023c-2.773,0-5.023-2.25-5.023-5.023
	c0-2.777,2.25-5.027,5.023-5.027C29.738,32.105,31.988,34.355,31.988,37.132"/>
<path fill="#FFFFFF" d="M75.902,36.14l3.407-26.863L54.867,0L25.547,14.004L0,3.214l3.449,28.665L0.145,60.101l27.14,5.09
	l27.688-5.27l24.429,5.637L75.902,36.14z M54.777,2.843l21.653,8.161l-1.492,11.75l-21.583-5.461L54.777,2.843z M51.91,4.336
	l-1.14,12.3l-0.021-0.004l-14.94,1.926l-0.09,0.332c-0.016,0.071-1.75,6.478-3.578,9.388c-1.184-0.695-2.512-1.16-3.934-1.332
	l-1.211-10.711L51.91,4.336z M49.628,31.773L36.641,33.73c-0.7-1.976-1.981-3.676-3.649-4.894c1.699-2.711,3.235-7.965,3.621-9.352
	l14.059-1.816L49.628,31.773z M24.355,16.367l1.2,10.601c-3.946,0.547-7.184,3.332-8.371,7.036L6.109,32.289L5.047,22.019
	c3.672-0.241,6.422-1.437,8.187-3.565c1.59-1.922,2.047-4.192,2.137-5.883L24.355,16.367z M3.195,7.429l11.164,4.715
	c-0.031,1.56-0.382,3.817-1.906,5.656c-1.594,1.918-4.121,2.993-7.535,3.207L3.195,7.429z M3.055,57.964L5.801,34.91l10.918,1.695
	c-0.008,0.176-0.024,0.348-0.024,0.527c0,2.398,0.832,4.605,2.219,6.359l-5.672,4.555l-1.785,11.492L3.055,57.964z M24.449,61.976
	l-11.992-2.25l1.734-11.137l5.395-4.332c1.656,1.711,3.898,2.855,6.402,3.09L24.449,61.976z M18.734,37.132
	c0-4.54,3.692-8.234,8.227-8.234c4.543,0,8.234,3.694,8.234,8.234c0,4.535-3.691,8.23-8.234,8.23
	C22.426,45.363,18.734,41.667,18.734,37.132 M27.281,62.507l-0.23-0.043l1.601-15.219c4.86-0.809,8.578-5.031,8.578-10.117
	c0-0.273-0.019-0.543-0.039-0.813l12.692-1.914l1.058,10.824c-5.566,0.262-9.73,1.977-12.347,5.137
	c-3.059,3.691-3.199,8.293-3.043,10.566L27.281,62.507z M36.566,60.738c-0.121-2.16,0.059-6.398,2.813-9.723
	c2.437-2.941,6.367-4.531,11.664-4.77l1.13,11.52L36.566,60.738z M53.262,18.32l21.55,5.444l-1.292,10.18l-21.278-2.566
	L53.262,18.32z M70.59,42.742l-9.806-1.168l1.793,17.391l-7.851-1.688l-2.231-23.266l0.231-0.035l20.565,2.609l3.043,25.555
	l-12.727-2.934L61.93,42.738l8.737,1.016L70.59,42.742z"/>
</svg>
