<?xml version="1.0" encoding="utf-8"?>
<!-- Generator: Adobe Illustrator 16.0.2, SVG Export Plug-In . SVG Version: 6.00 Build 0)  -->
<!DOCTYPE svg PUBLIC "-//W3C//DTD SVG 1.1//EN" "http://www.w3.org/Graphics/SVG/1.1/DTD/svg11.dtd">
<svg version="1.1" id="Layer_1" xmlns="http://www.w3.org/2000/svg" xmlns:xlink="http://www.w3.org/1999/xlink" x="0px" y="0px"
	 width="59.391px" height="66.136px" viewBox="0 0 59.391 66.136" enable-background="new 0 0 59.391 66.136" xml:space="preserve">
<path fill="#FFFFFF" d="M30.469,0c0.098,1.441,0.276,2.883,0.266,4.324c-0.006,0.943,0.258,1.62,0.952,2.251
	c1.144,1.042,2.224,2.154,3.304,3.264c1.994,2.052,4.186,3.814,6.861,4.918c0.448,0.184,0.832,0.521,1.245,0.787
	c-0.017,0.121-0.034,0.241-0.053,0.361c-0.869,0.116-1.743,0.356-2.606,0.321c-1.4-0.056-1.787,0.552-1.656,1.846
	c0.099,0.972,0.02,1.963,0.02,3.03h-1.406v-2.674h-3.533v2.686h-2.125c-0.042-0.889-0.084-1.768-0.129-2.712h-3.41v2.693h-2.357
	c-0.041-0.873-0.083-1.75-0.127-2.694h-3.462v2.721c-0.544,0.028-0.994,0.052-1.666,0.087c0-1.286-0.034-2.516,0.012-3.742
	c0.03-0.82-0.277-1.158-1.104-1.197c-1.049-0.05-2.093-0.215-3.14-0.33l-0.064-0.386c0.404-0.266,0.776-0.608,1.216-0.785
	c4.526-1.823,7.411-5.631,10.742-8.89c0.301-0.296,0.322-0.937,0.365-1.427C28.744,2.971,28.821,1.484,28.919,0H30.469z"/>
<path fill="#FFFFFF" d="M13.142,59.709v6.314h-3.58c-0.029-0.411-0.085-0.861-0.087-1.311c-0.009-2.582-0.057-5.166,0.019-7.746
	c0.035-1.191-0.462-1.576-1.559-1.672c-2.268-0.201-4.531-0.467-6.787-0.772C0.744,54.469,0.382,54.098,0,53.873
	c0.286-0.346,0.504-0.815,0.87-1.017c1.995-1.096,4.016-2.146,6.049-3.17c2.233-1.127,4.122-2.645,5.523-4.727
	c1.551-2.306,3.744-3.313,6.471-3.311c7.143,0.004,14.286,0.002,21.43,0.001c2.681-0.001,4.82,0.952,6.283,3.319
	c1.156,1.873,2.854,3.194,4.803,4.19c2.027,1.037,4.06,2.065,6.087,3.103c0.344,0.177,0.712,0.336,0.997,0.586
	c0.334,0.293,0.589,0.677,0.878,1.021c-0.379,0.228-0.737,0.601-1.142,0.66c-1.953,0.29-3.916,0.534-5.883,0.722
	c-2.445,0.234-2.449,0.203-2.449,2.694c0,2.661,0,5.321,0,8.078h-3.213c0-1.66-0.065-3.324,0.022-4.979
	c0.06-1.111-0.358-1.402-1.403-1.357c-1.761,0.072-3.529,0.061-5.291,0.003c-0.889-0.029-1.238,0.241-1.199,1.161
	c0.06,1.418-0.017,2.842,0.025,4.26c0.023,0.791-0.271,1.059-1.054,1.023c-1.191-0.054-2.386-0.015-3.744-0.015
	c0-1.844-0.045-3.553,0.019-5.258c0.033-0.922-0.301-1.197-1.19-1.171c-1.849,0.054-3.702,0.05-5.551,0.001
	c-0.838-0.022-1.15,0.253-1.127,1.104c0.048,1.711,0.014,3.426,0.014,5.319c-1.628,0-3.117,0.045-4.598-0.044
	c-0.244-0.014-0.631-0.605-0.647-0.945c-0.072-1.502,0.01-3.013-0.067-4.515c-0.017-0.312-0.467-0.854-0.73-0.862
	C17.912,59.68,15.639,59.709,13.142,59.709"/>
<path fill="#FFFFFF" d="M49.362,31.479c-1.376,0.178-2.748,0.394-4.128,0.527c-2.094,0.2-2.096,0.176-2.096,2.328
	c0,1.584,0,3.169,0,4.843h-2.102v-4.026H35.8v4.047h-3.205v-4.059h-5.176v4.016h-3.498v-4.022h-5.165v4.03h-2.501
	c0-1.684,0-3.426,0-5.168c-0.001-1.837-0.004-1.811-1.79-1.979c-1.473-0.138-2.938-0.35-4.407-0.529
	c-0.04-0.138-0.079-0.276-0.119-0.414c0.351-0.297,0.665-0.662,1.059-0.88c1.127-0.624,2.368-1.073,3.413-1.806
	c1.352-0.948,2.717-1.967,3.784-3.207c1.224-1.423,2.59-2.177,4.439-2.173c4.688,0.012,9.376,0.009,14.065,0.002
	c1.804-0.003,3.139,0.706,4.276,2.176c0.867,1.122,2.064,2.043,3.258,2.84c1.205,0.805,2.596,1.33,3.886,2.013
	c0.468,0.248,0.881,0.601,1.317,0.906C49.413,31.121,49.386,31.3,49.362,31.479"/>
</svg>
