<?xml version="1.0" encoding="utf-8"?>
<!-- Generator: Adobe Illustrator 16.0.2, SVG Export Plug-In . SVG Version: 6.00 Build 0)  -->
<!DOCTYPE svg PUBLIC "-//W3C//DTD SVG 1.1//EN" "http://www.w3.org/Graphics/SVG/1.1/DTD/svg11.dtd">
<svg version="1.1" id="Layer_1" xmlns="http://www.w3.org/2000/svg" xmlns:xlink="http://www.w3.org/1999/xlink" x="0px" y="0px"
	 width="68.321px" height="59.719px" viewBox="0 0 68.321 59.719" enable-background="new 0 0 68.321 59.719" xml:space="preserve">
<path fill="#FFFFFF" d="M68.321,13.86v5.124c-1.494,7.904-6.5,13.512-12.057,18.864c-7.003,6.744-13.807,13.697-20.698,20.557
	c-0.435,0.434-0.89,0.844-1.391,1.314c-0.28-0.236-0.502-0.4-0.695-0.592c-8.582-8.549-17.256-17.006-25.679-25.709
	c-2.327-2.402-4.095-5.422-5.758-8.365C1.011,23.229,0.658,21.021,0,18.984V13.86c0.126-0.491,0.261-0.979,0.375-1.473
	C1.84,6.011,5.66,1.876,12.113,0.528c7.005-1.461,13.22,0.023,18.15,5.543c1.273,1.426,2.562,2.835,3.897,4.311
	c1.506-1.655,2.872-3.172,4.254-4.674c3.513-3.813,7.863-5.618,13.05-5.689c7.878-0.106,13.946,3.873,16.046,10.72
	C67.825,11.766,68.053,12.819,68.321,13.86"/>
</svg>
