<?xml version="1.0" encoding="utf-8"?>
<!-- Generator: Adobe Illustrator 16.0.2, SVG Export Plug-In . SVG Version: 6.00 Build 0)  -->
<!DOCTYPE svg PUBLIC "-//W3C//DTD SVG 1.1//EN" "http://www.w3.org/Graphics/SVG/1.1/DTD/svg11.dtd">
<svg version="1.1" id="Layer_1" xmlns="http://www.w3.org/2000/svg" xmlns:xlink="http://www.w3.org/1999/xlink" x="0px" y="0px"
	 width="79.257px" height="81.336px" viewBox="0 0 79.257 81.336" enable-background="new 0 0 79.257 81.336" xml:space="preserve">
<path fill="#FFFFFF" d="M69.476,0c1.381,0.971,2.763,1.941,4.326,3.041c-3.137,3.707-6.229,7.362-9.408,11.12
	c1.563,1.064,3.01,2.119,4.533,3.048c0.44,0.269,1.16,0.373,1.647,0.22c1.997-0.63,3.595,0.015,5.104,1.271
	c0.645,0.537,1.389,0.954,2.266,1.545c-1.57,1.216-3.1,2.26-4.449,3.5c-0.764,0.702-1.408,1.653-1.797,2.619
	c-0.643,1.599-1.035,3.299-1.579,5.109c-1.516-1.013-2.938-1.835-4.192-2.865c-0.494-0.405-0.758-1.25-0.869-1.936
	c-0.241-1.467-0.9-2.506-2.25-3.205c-1.07-0.554-2.034-1.313-3.248-2.116c-2.277,4.334-4.502,8.567-6.803,12.946
	c-1.358-0.912-2.684-1.689-3.853-2.655c-0.333-0.274-0.394-1.137-0.276-1.662c0.926-4.13,1.895-8.25,2.918-12.356
	c0.256-1.027,0.104-1.666-0.869-2.201c-1.109-0.611-2.152-1.354-3.178-2.102c-2.045-1.491-2.555-4.023-1.262-6.036
	c1.314-2.05,3.936-2.615,6.148-1.267c1.22,0.744,2.351,1.635,3.576,2.365c0.36,0.215,1.06,0.33,1.346,0.127
	c3.977-2.8,7.908-5.662,11.85-8.51H69.476z M73.763,20.583c-0.076-0.24-0.152-0.482-0.229-0.722c-0.98,0-1.99-0.146-2.938,0.035
	c-1.184,0.228-2.11,0.018-3.1-0.677c-3.685-2.583-7.425-5.086-11.145-7.618c-1.707-1.162-3.391-2.362-5.133-3.467
	c-1.41-0.892-2.946-0.292-3.215,1.179c-0.218,1.197,0.541,1.842,1.418,2.423c4.989,3.301,9.934,6.672,14.98,9.882
	c1.587,1.009,2.609,2.145,2.891,4.036c0.104,0.701,0.696,1.33,1.066,1.992c0.184-0.021,0.366-0.044,0.548-0.065
	C69.087,24.254,70.873,22.037,73.763,20.583 M70.245,3.513c-1.198-0.448-7.081,3.292-11.272,6.962
	c1.145,0.771,2.257,1.52,3.425,2.306C65.036,9.664,67.583,6.655,70.245,3.513 M53.99,17.684c-0.977,4.115-1.924,8.046-2.813,11.99
	c-0.066,0.297,0.287,0.69,0.586,1.348c2.035-3.893,3.88-7.424,5.762-11.024C56.308,19.201,55.222,18.491,53.99,17.684"/>
<path fill="#FFFFFF" d="M39.99,39.656h24.68c-0.15-4.829-1.699-9.129-4.306-13.257c0.67-0.465,1.257-0.872,1.843-1.279
	c6.613,9.068,7.389,24.14-2.441,34.929c-9.289,10.199-24.724,12.666-37.122,4.375C11.469,56.952,7.067,41.606,12.641,29.368
	c6.287-13.806,20.944-19.01,32.007-16.193c-0.121,0.64-0.244,1.29-0.397,2.098c-1.418-0.13-2.802-0.256-4.279-0.391v9.985h3.711
	v2.452H39.99V39.656z M39.955,54.768c3.238,0,6.307,0.021,9.375-0.027c0.359-0.008,0.936-0.334,1.032-0.637
	c1.235-3.842,1.778-7.795,1.839-11.871H39.955V54.768z M37.47,54.706c0-4.025,0.019-7.887-0.036-11.746
	c-0.004-0.293-0.526-0.828-0.813-0.832c-3.642-0.057-7.285-0.037-11.057-0.037c-0.077,4.43,0.654,8.545,1.931,12.615H37.47z
	 M37.389,27.356c-3.15,0-6.213-0.024-9.274,0.039c-0.304,0.007-0.783,0.516-0.866,0.864c-0.508,2.162-0.996,4.334-1.349,6.525
	c-0.254,1.585-0.287,3.205-0.421,4.841h11.91V27.356z M12.729,42.172c0.127,4.43,1.411,8.342,3.574,11.986
	c0.16,0.27,0.543,0.572,0.827,0.576c2.562,0.045,5.125,0.027,7.535,0.027c-0.645-4.293-1.261-8.396-1.89-12.59H12.729z
	 M24.691,27.359c-2.51,0-5.142-0.017-7.774,0.027c-0.281,0.004-0.665,0.31-0.817,0.579c-2.028,3.592-3.276,7.411-3.358,11.669
	h10.052C23.431,35.515,24.05,31.503,24.691,27.359 M64.697,42.083c-2.938,0-5.78,0.059-8.618-0.027
	c-1.226-0.037-1.459,0.445-1.555,1.553c-0.237,2.73-0.623,5.449-1.007,8.164c-0.135,0.959-0.435,1.895-0.695,2.994
	c2.602,0,4.975,0.018,7.348-0.021c0.301-0.006,0.729-0.234,0.879-0.488C63.246,50.567,64.499,46.59,64.697,42.083 M39.891,66.834
	c3.924,0.031,8.732-6.531,9.068-9.494h-9.068v8.02V66.834z M28.625,57.321c0.998,3.951,5.927,9.813,8.761,9.373v-9.373H28.625z
	 M37.479,24.811c0-1.71,0-3.244,0-4.776c0-1.565,0-3.132,0-4.69c-3.262,0.028-7.808,5.562-8.855,9.467H37.479z M18.186,24.908
	c2.543,0,4.711,0.032,6.876-0.033c0.364-0.012,0.856-0.373,1.05-0.71c1.542-2.684,3.026-5.399,4.488-8.034
	C25.828,17.612,21.768,20.535,18.186,24.908 M30.221,65.504c-1.343-2.461-2.662-4.912-4.024-7.34
	c-0.204-0.365-0.598-0.867-0.919-0.879c-2.181-0.078-4.367-0.041-6.851-0.041C21.836,61.282,25.677,63.999,30.221,65.504
	 M47.669,65.307c4.444-1.576,8.069-4.207,11.28-8.064c-2.345,0-4.382-0.039-6.413,0.035c-0.342,0.014-0.781,0.455-0.977,0.809
	C50.259,60.426,49.013,62.797,47.669,65.307"/>
<path fill="#FFFFFF" d="M75.558,50.651c0.213-0.861,0.372-1.504,0.553-2.236c0.813,0.158,1.508,0.293,2.317,0.449
	c-0.198,0.846-0.362,1.543-0.562,2.391C77.094,51.053,76.408,50.874,75.558,50.651"/>
<path fill="#FFFFFF" d="M37.378,81.336v-2.219h2.221c0.053,0.686,0.107,1.389,0.171,2.219H37.378z"/>
<path fill="#FFFFFF" d="M74.08,55.09c0.314-0.82,0.549-1.434,0.82-2.145c0.792,0.246,1.465,0.455,2.268,0.703
	c-0.295,0.791-0.545,1.455-0.855,2.283C75.591,55.661,74.936,55.415,74.08,55.09"/>
<path fill="#FFFFFF" d="M8.952,64.979c0.522,0.592,0.99,1.123,1.527,1.732c-0.577,0.539-1.066,0.996-1.696,1.588
	c-0.543-0.584-1.049-1.127-1.673-1.799C7.755,65.967,8.3,65.516,8.952,64.979"/>
<path fill="#FFFFFF" d="M10.494,70.112c0.536-0.568,0.999-1.061,1.596-1.695c0.566,0.479,1.105,0.934,1.779,1.504
	c-0.511,0.604-0.971,1.15-1.564,1.852C11.69,71.209,11.134,70.698,10.494,70.112"/>
<path fill="#FFFFFF" d="M56.531,77.299c-0.372-0.734-0.697-1.375-1.076-2.123c0.676-0.367,1.302-0.707,2.035-1.105
	c0.385,0.656,0.721,1.23,1.193,2.037C57.976,76.499,57.298,76.875,56.531,77.299"/>
<path fill="#FFFFFF" d="M28.194,77.594c0.824,0.227,1.424,0.389,2.175,0.594c-0.152,0.75-0.293,1.445-0.471,2.324
	c-0.811-0.215-1.535-0.408-2.374-0.633C27.763,79.067,27.961,78.389,28.194,77.594"/>
<path fill="#FFFFFF" d="M46.657,78.196c0.843-0.197,1.481-0.346,2.242-0.521c0.213,0.783,0.397,1.461,0.62,2.271
	c-0.82,0.209-1.503,0.383-2.348,0.596C47.001,79.764,46.851,79.083,46.657,78.196"/>
<path fill="#FFFFFF" d="M31.892,3.146C31.1,3.319,30.451,3.46,29.631,3.638c-0.21-0.778-0.392-1.459-0.602-2.237
	c0.769-0.187,1.423-0.345,2.334-0.564C31.531,1.569,31.684,2.236,31.892,3.146"/>
<path fill="#FFFFFF" d="M9.897,15.592c-0.662-0.604-1.157-1.055-1.75-1.596c0.581-0.629,1.067-1.155,1.751-1.894
	c0.508,0.652,0.951,1.224,1.472,1.894C10.96,14.44,10.474,14.969,9.897,15.592"/>
<path fill="#FFFFFF" d="M7.04,19.263c-0.745-0.525-1.294-0.914-1.941-1.371c0.483-0.671,0.906-1.258,1.401-1.944
	c0.653,0.482,1.225,0.904,1.919,1.418C7.96,17.996,7.543,18.57,7.04,19.263"/>
<path fill="#FFFFFF" d="M22.969,5.928c-0.786,0.381-1.392,0.674-2.076,1.005c-0.383-0.702-0.729-1.337-1.127-2.065
	c0.751-0.376,1.403-0.704,2.193-1.101C22.288,4.471,22.593,5.124,22.969,5.928"/>
<path fill="#FFFFFF" d="M75.25,29.944c0.824-0.258,1.502-0.472,2.293-0.72c0.217,0.837,0.396,1.524,0.616,2.368
	c-0.8,0.197-1.479,0.365-2.272,0.561C75.673,31.415,75.489,30.775,75.25,29.944"/>
<path fill="#FFFFFF" d="M34.242,2.871c-0.108-0.808-0.195-1.468-0.31-2.325c0.813-0.095,1.548-0.179,2.416-0.278
	c0.039,0.823,0.071,1.487,0.111,2.325C35.695,2.688,35.007,2.775,34.242,2.871"/>
<path fill="#FFFFFF" d="M11.627,10.488c0.697-0.59,1.214-1.027,1.857-1.571c0.507,0.627,0.955,1.181,1.488,1.839
	c-0.592,0.511-1.102,0.948-1.741,1.498C12.71,11.682,12.232,11.154,11.627,10.488"/>
<path fill="#FFFFFF" d="M1.466,24.403c0.801,0.365,1.413,0.645,2.168,0.988c-0.286,0.704-0.55,1.352-0.863,2.122
	c-0.791-0.309-1.452-0.566-2.209-0.861C0.875,25.876,1.141,25.215,1.466,24.403"/>
<path fill="#FFFFFF" d="M5.762,21.227c-0.391,0.719-0.711,1.306-1.1,2.019C3.965,22.887,3.33,22.56,2.535,22.15
	c0.421-0.736,0.798-1.396,1.216-2.128C4.445,20.439,5.058,20.805,5.762,21.227"/>
<path fill="#FFFFFF" d="M72.124,59.293c0.343-0.699,0.638-1.299,1.008-2.057c0.697,0.324,1.339,0.621,2.177,1.01
	c-0.381,0.736-0.724,1.4-1.125,2.174C73.472,60.03,72.853,59.692,72.124,59.293"/>
<path fill="#FFFFFF" d="M69.583,63.227c0.497-0.719,0.879-1.273,1.319-1.91c0.678,0.436,1.275,0.82,1.988,1.279
	c-0.478,0.715-0.877,1.313-1.349,2.016C70.902,64.161,70.32,63.749,69.583,63.227"/>
<path fill="#FFFFFF" d="M64.964,68.522c0.574,0.639,1.025,1.143,1.572,1.752c-0.518,0.479-1.081,1-1.725,1.596
	c-0.525-0.613-0.992-1.16-1.545-1.807C63.838,69.543,64.333,69.094,64.964,68.522"/>
<path fill="#FFFFFF" d="M23.766,76.065c0.809,0.311,1.43,0.551,2.154,0.83c-0.288,0.787-0.532,1.457-0.808,2.211
	c-0.777-0.285-1.447-0.529-2.263-0.828C23.178,77.485,23.448,76.831,23.766,76.065"/>
<path fill="#FFFFFF" d="M54.218,78.327c-0.821,0.316-1.449,0.559-2.246,0.867c-0.263-0.727-0.516-1.422-0.818-2.254
	c0.762-0.279,1.377-0.502,2.157-0.787C53.615,76.881,53.885,77.528,54.218,78.327"/>
<path fill="#FFFFFF" d="M2.239,52.708c0.302,0.789,0.541,1.412,0.833,2.176c-0.737,0.307-1.394,0.58-2.189,0.912
	C0.59,55.045,0.33,54.379,0,53.534C0.726,53.266,1.387,53.022,2.239,52.708"/>
<path fill="#FFFFFF" d="M44.28,78.577c0.153,0.887,0.276,1.592,0.424,2.434c-0.879,0.076-1.595,0.139-2.483,0.215
	c-0.053-0.781-0.096-1.441-0.149-2.229C42.781,78.862,43.431,78.737,44.28,78.577"/>
<path fill="#FFFFFF" d="M27.297,4.292c-0.757,0.261-1.389,0.478-2.161,0.742c-0.283-0.754-0.532-1.419-0.838-2.233
	c0.798-0.258,1.479-0.478,2.34-0.754C26.869,2.835,27.068,3.512,27.297,4.292"/>
<path fill="#FFFFFF" d="M15.519,7.419c0.748-0.481,1.348-0.869,2.075-1.337c0.416,0.7,0.782,1.317,1.203,2.026
	c-0.661,0.436-1.254,0.826-1.917,1.263C16.416,8.705,16.031,8.154,15.519,7.419"/>
<path fill="#FFFFFF" d="M2.962,60.307C2.559,59.5,2.239,58.858,1.861,58.1c0.715-0.346,1.316-0.637,2.101-1.016
	c0.365,0.684,0.694,1.299,1.088,2.035C4.353,59.516,3.768,59.848,2.962,60.307"/>
<path fill="#FFFFFF" d="M5.607,64.485c-0.5-0.736-0.907-1.334-1.375-2.021c0.656-0.42,1.26-0.807,1.998-1.277
	c0.459,0.676,0.854,1.258,1.298,1.912C6.884,63.563,6.338,63.958,5.607,64.485"/>
<path fill="#FFFFFF" d="M76.909,39.141h2.245c0.033,0.688,0.066,1.374,0.104,2.178h-2.349V39.141z"/>
<path fill="#FFFFFF" d="M68.373,68.452c-0.637-0.6-1.127-1.061-1.715-1.611c0.489-0.58,0.916-1.086,1.483-1.758
	c0.623,0.52,1.196,0.998,1.842,1.537C69.416,67.266,68.935,67.811,68.373,68.452"/>
<path fill="#FFFFFF" d="M76.442,46.038c0.116-0.803,0.205-1.42,0.315-2.197c0.776,0.039,1.481,0.076,2.31,0.117
	c-0.073,0.852-0.134,1.563-0.21,2.455C77.978,46.276,77.242,46.163,76.442,46.038"/>
<path fill="#FFFFFF" d="M16.277,74.774c-0.755-0.547-1.339-0.969-2.006-1.451c0.483-0.646,0.885-1.186,1.406-1.885
	c0.623,0.43,1.202,0.828,1.875,1.293C17.13,73.407,16.75,74.018,16.277,74.774"/>
<path fill="#FFFFFF" d="M60.822,74.838c-0.463-0.701-0.837-1.268-1.307-1.975c0.629-0.449,1.211-0.865,1.882-1.348
	c0.479,0.641,0.915,1.225,1.428,1.912C62.177,73.885,61.583,74.303,60.822,74.838"/>
<path fill="#FFFFFF" d="M19.602,73.993c0.693,0.373,1.277,0.688,2,1.074c-0.354,0.736-0.659,1.371-1.026,2.135
	c-0.766-0.398-1.399-0.729-2.175-1.131C18.827,75.334,19.181,74.721,19.602,73.993"/>
<path fill="#FFFFFF" d="M78.605,34.03c0.154,0.875,0.281,1.588,0.438,2.476c-0.836,0.067-1.547,0.125-2.433,0.196
	c-0.086-0.762-0.16-1.416-0.247-2.185C77.1,34.357,77.753,34.216,78.605,34.03"/>
<path fill="#FFFFFF" d="M32.702,78.567c0.829,0.141,1.526,0.258,2.312,0.393c-0.096,0.789-0.175,1.449-0.27,2.236
	c-0.789-0.066-1.495-0.125-2.358-0.197C32.499,80.139,32.589,79.434,32.702,78.567"/>
<path fill="#FFFFFF" d="M41.163,2.586h-2.148v-2.23h2.258C41.237,1.096,41.204,1.759,41.163,2.586"/>
</svg>
