<?xml version="1.0" encoding="utf-8"?>
<!-- Generator: Adobe Illustrator 16.0.2, SVG Export Plug-In . SVG Version: 6.00 Build 0)  -->
<!DOCTYPE svg PUBLIC "-//W3C//DTD SVG 1.1//EN" "http://www.w3.org/Graphics/SVG/1.1/DTD/svg11.dtd">
<svg version="1.1" id="Layer_1" xmlns="http://www.w3.org/2000/svg" xmlns:xlink="http://www.w3.org/1999/xlink" x="0px" y="0px"
	 width="46.52px" height="52.259px" viewBox="0 0 46.52 52.259" enable-background="new 0 0 46.52 52.259" xml:space="preserve">
<path fill="#FFFFFF" d="M24.253,45.506c0-0.527,0.434-0.953,0.962-0.953h3.295c1.385,0.93,2.955,1.568,4.617,1.875
	c-0.07,0.018-0.135,0.041-0.206,0.041h-7.706C24.687,46.469,24.253,46.043,24.253,45.506 M21.913,37.838h1.711
	c-0.183-0.629-0.315-1.268-0.387-1.914h-1.324c-0.526,0-0.952,0.426-0.952,0.955C20.961,37.415,21.387,37.838,21.913,37.838
	 M14.86,13.624c-1.182-0.794-1.984-2.356-1.984-3.767c0-1.984,1.607-3.601,3.593-3.601c1.993,0,3.6,1.616,3.6,3.601
	c0,1.41-0.811,2.973-1.992,3.767c2.819,0.71,4.909,3.161,4.909,4.973c0,2.145-13.024,2.145-13.024,0
	C9.953,16.785,12.049,14.342,14.86,13.624 M14.641,18.385l1.828,1.82l1.827-1.82l-1.535-3.72h0.014l0.591-0.678
	c-0.281,0.103-0.582,0.165-0.896,0.165c-0.315,0-0.616-0.063-0.898-0.174l0.592,0.687h0.016L14.641,18.385z M38.721,50.17v-0.006
	l-0.046-0.08c-0.025,0-0.041,0.008-0.063,0.008H5.216c-1.727,0-3.129-1.402-3.129-3.127V5.216c0-1.724,1.402-3.126,3.129-3.126
	h33.396c1.726,0,3.127,1.402,3.127,3.126v19.11c0.748,0.472,1.458,1.008,2.091,1.638V5.216C43.829,2.342,41.486,0,38.611,0H5.216
	C2.34,0,0,2.342,0,5.216v41.742c0,2.883,2.34,5.217,5.216,5.217h33.396c0.41,0,0.804-0.057,1.183-0.143L38.721,50.17z
	 M10.913,33.465h12.293c0.063-0.637,0.166-1.277,0.331-1.914H10.913c-0.529,0-0.952,0.434-0.952,0.963
	C9.953,33.04,10.384,33.465,10.913,33.465 M10.913,24.727h17.232c0.339-0.244,0.694-0.479,1.064-0.693
	c0.938-0.542,1.945-0.952,2.986-1.221H10.913c-0.529,0-0.96,0.427-0.96,0.962C9.953,24.302,10.384,24.727,10.913,24.727
	 M10.913,29.1h13.521c0.339-0.678,0.74-1.324,1.19-1.922H10.913c-0.529,0-0.96,0.434-0.96,0.963
	C9.953,28.667,10.384,29.1,10.913,29.1 M43.669,29.684c2.673,4.625,1.082,10.574-3.552,13.246
	c-4.635,2.672-10.575,1.088-13.247-3.553c-2.671-4.627-1.08-10.568,3.546-13.248C35.05,23.458,40.989,25.05,43.669,29.684
	 M42.274,30.489c-2.229-3.869-7.185-5.195-11.054-2.973c-3.863,2.238-5.195,7.195-2.955,11.064
	c2.229,3.859,7.186,5.193,11.046,2.963C43.181,39.305,44.505,34.35,42.274,30.489 M42.552,42.333l-4.17,2.402l3.216,5.563
	l4.169-2.402L42.552,42.333z M46.199,48.651l-4.177,2.404c0.67,1.158,2.146,1.545,3.294,0.881
	C46.467,51.274,46.86,49.801,46.199,48.651"/>
</svg>
