<?xml version="1.0" encoding="utf-8"?>
<!-- Generator: Adobe Illustrator 16.0.2, SVG Export Plug-In . SVG Version: 6.00 Build 0)  -->
<!DOCTYPE svg PUBLIC "-//W3C//DTD SVG 1.1//EN" "http://www.w3.org/Graphics/SVG/1.1/DTD/svg11.dtd">
<svg version="1.1" id="Layer_1" xmlns="http://www.w3.org/2000/svg" xmlns:xlink="http://www.w3.org/1999/xlink" x="0px" y="0px"
	 width="63.795px" height="63.07px" viewBox="0 0 63.795 63.07" enable-background="new 0 0 63.795 63.07" xml:space="preserve">
<path fill="#FFFFFF" d="M0,55.352V54.09c0.208-0.009,0.415-0.027,0.621-0.027c10.347,0,20.693,0.002,31.039-0.01
	c0.433,0,0.689,0.145,0.956,0.476c7.688,9.532,22.895,7.335,27.421-3.954c0.039-0.1,0.072-0.2,0.136-0.38
	c-0.213-0.091-0.414-0.188-0.624-0.267c-4.549-1.721-9.097-3.445-13.652-5.147c-0.454-0.169-0.601-0.39-0.599-0.876
	c0.02-4.938,0.01-9.874,0.009-14.811c0-0.214,0-0.427,0-0.736c-4.602,0.04-8.487,1.672-11.829,4.995c0-1.168-0.025-2.187,0.02-3.203
	c0.009-0.197,0.258-0.423,0.448-0.567c2.862-2.165,6.098-3.392,9.661-3.699c8.884-0.767,17.082,4.949,19.49,13.55
	c3.002,10.724-3.988,21.717-14.999,23.385c-7.199,1.091-13.108-1.389-17.7-7.016c-0.275-0.336-0.534-0.461-0.959-0.459
	c-9.531,0.012-19.062,0.008-28.592,0.008H0z"/>
<rect x="23.201" y="15.576" fill="#FFFFFF" width="8.95" height="37.15"/>
<rect x="11.609" y="30.002" fill="#FFFFFF" width="8.95" height="22.723"/>
<rect x="0.009" y="36.127" fill="#FFFFFF" width="8.97" height="16.623"/>
<path fill="#FFFFFF" d="M58.938,1.277C58.47,0.86,58.027,0.468,57.5,0h3.867v3.845c-0.517-0.559-0.976-1.055-1.468-1.587
	c-0.688,0.576-1.274,1.065-1.857,1.558c-3.572,3.022-7.14,6.049-10.72,9.06c-0.31,0.261-0.413,0.493-0.36,0.912
	c0.137,1.109-0.608,2.047-1.637,2.165c-1.194,0.137-2.11-0.502-2.261-1.666c-0.056-0.439-0.26-0.612-0.612-0.775
	c-4.255-1.981-8.507-3.967-12.752-5.967c-0.352-0.166-0.57-0.178-0.888,0.101c-0.577,0.507-1.289,0.583-1.992,0.285
	c-0.33-0.14-0.526-0.099-0.789,0.134c-2.726,2.425-5.47,4.83-8.191,7.259c-0.177,0.158-0.293,0.461-0.309,0.704
	c-0.049,0.835-0.417,1.443-1.181,1.764c-0.778,0.327-1.526,0.214-2.156-0.361c-0.642-0.585-0.754-1.346-0.486-2.126
	c0.123-0.36,0.093-0.583-0.148-0.849c-0.301-0.334-0.566-0.701-0.85-1.05c-0.612-0.751-1.233-0.67-1.662,0.215
	C9.23,17.36,7.42,21.103,5.587,24.835c-0.199,0.405-0.23,0.696,0.022,1.107c0.469,0.76,0.282,1.763-0.338,2.369
	c-0.589,0.575-1.591,0.717-2.334,0.332c-0.771-0.401-1.182-1.293-1.005-2.181c0.168-0.848,0.845-1.41,1.751-1.553
	c0.237-0.037,0.54-0.247,0.645-0.46c1.895-3.844,3.77-7.699,5.623-11.564c0.103-0.213,0.082-0.574-0.029-0.788
	c-0.456-0.872-0.376-1.849,0.271-2.5c0.632-0.637,1.65-0.766,2.436-0.308c0.787,0.458,1.163,1.397,0.841,2.345
	c-0.135,0.401-0.042,0.645,0.203,0.915c0.157,0.175,0.31,0.358,0.443,0.551c0.41,0.594,0.831,1.149,1.692,0.919
	c0.092-0.024,0.23,0.007,0.309,0.064c0.659,0.478,1.083,0.092,1.568-0.342c2.479-2.22,4.976-4.417,7.477-6.61
	c0.31-0.271,0.479-0.521,0.458-0.973c-0.051-1.099,0.674-1.898,1.738-2.025c1.015-0.12,1.841,0.487,2.157,1.525
	c0.069,0.229,0.269,0.494,0.479,0.593c4.379,2.071,8.766,4.124,13.158,6.162c0.185,0.085,0.502,0.069,0.673-0.037
	c0.594-0.369,1.201-0.381,1.858-0.258c0.213,0.04,0.52,0.008,0.674-0.122C50.48,8.53,54.59,5.048,58.7,1.568
	C58.747,1.528,58.78,1.472,58.938,1.277"/>
</svg>
