<?xml version="1.0" encoding="utf-8"?>
<!-- Generator: Adobe Illustrator 16.0.2, SVG Export Plug-In . SVG Version: 6.00 Build 0)  -->
<!DOCTYPE svg PUBLIC "-//W3C//DTD SVG 1.1//EN" "http://www.w3.org/Graphics/SVG/1.1/DTD/svg11.dtd">
<svg version="1.1" id="Layer_1" xmlns="http://www.w3.org/2000/svg" xmlns:xlink="http://www.w3.org/1999/xlink" x="0px" y="0px"
	 width="65.198px" height="66.211px" viewBox="0 0 65.198 66.211" enable-background="new 0 0 65.198 66.211" xml:space="preserve">
<path fill="#FFFFFF" d="M48.749,13.815c3.521,0,6.377-2.855,6.377-6.377c0-3.524-2.855-6.379-6.377-6.379
	c-3.523,0-6.379,2.854-6.379,6.379C42.37,10.96,45.226,13.815,48.749,13.815"/>
<path fill="#FFFFFF" d="M65.013,38.668l-9.094-22.106c-0.391-0.949-1.307-1.52-2.271-1.52c-0.007,0-0.015,0-0.021,0H43.87
	c-0.012,0-0.021,0-0.032,0.001c-0.97-0.005-1.892,0.566-2.283,1.519l-6.93,16.846l-7.26-17.646
	c-0.255-0.621-0.959-1.553-2.397-1.553h-9.12c0.083,0.064,0.164,0.134,0.242,0.206c0.649,0.608,1.022,1.435,1.051,2.323
	c0.028,0.891-0.292,1.737-0.901,2.387l-3.648,3.885c-0.528,0.566-1.221,0.923-1.981,1.026c0.836,0.426,1.512,1.151,1.859,2.059
	l2.251,5.909c0.367,0.962,0.337,2.009-0.084,2.949c-0.016,0.035-0.036,0.068-0.054,0.104h9.498c0,0.002-0.001,0.004-0.001,0.006
	c0,0.395,0.319,0.713,0.714,0.713c0.393,0,0.713-0.318,0.713-0.713c0-0.002-0.001-0.004-0.001-0.006h0.118l1.423,4.447
	c-0.486,0.311-0.808,0.854-0.808,1.475c0,0.969,0.785,1.754,1.754,1.754c0.029,0,0.058-0.004,0.087-0.004l1.5,4.688
	c0.086,0.268-0.005,0.475-0.097,0.6c-0.091,0.125-0.26,0.275-0.541,0.275h-0.219c-0.102-0.92-0.882-1.637-1.83-1.637
	c-0.948,0-1.728,0.717-1.831,1.637H14.38c-0.228-0.168-0.511-0.27-0.816-0.27c-0.307,0-0.589,0.102-0.818,0.27H11.14
	c-0.282,0-0.45-0.15-0.542-0.275c-0.091-0.125-0.183-0.332-0.097-0.6l1.299-4.055c0.333,0.176,0.727,0.254,1.144,0.184
	c0.762-0.125,1.369-0.748,1.476-1.512c0.144-1.025-0.58-1.912-1.542-2.039l1.42-4.441c-0.439,0.646-1.061,1.143-1.807,1.426
	c-0.441,0.168-0.903,0.252-1.372,0.252c-0.217,0-0.43-0.02-0.64-0.055l-2.974,9.291c-0.782,2.443,1.04,4.938,3.605,4.938h1.044
	V62.93c0,1.85,1.533,3.344,3.399,3.277c1.777-0.063,3.16-1.578,3.16-3.355V51.405h2.596V62.93c0,1.85,1.533,3.344,3.399,3.277
	c1.777-0.063,3.16-1.578,3.16-3.355V51.405h1.074c2.564,0,4.387-2.494,3.605-4.938l-4.679-14.525v-1.859l3.335,8.113
	c0.564,1.369,1.897,2.264,3.378,2.264c1.479,0,2.812-0.895,3.375-2.264l3.061-7.435v32.222c0,1.822,1.508,3.291,3.344,3.227
	c1.75-0.064,3.11-1.555,3.11-3.305V45.493c0-0.682,0.513-1.275,1.192-1.32c0.744-0.047,1.361,0.541,1.361,1.275v17.535
	c0,1.822,1.51,3.291,3.346,3.227c1.748-0.064,3.108-1.555,3.108-3.305v-32.09l3.999,9.721c0.391,0.945,1.305,1.52,2.268,1.52
	c0.313,0,0.629-0.061,0.934-0.186C64.931,41.354,65.528,39.922,65.013,38.668"/>
<path fill="#FFFFFF" d="M20.011,12.963c3.58,0,6.481-2.901,6.481-6.481S23.591,0,20.011,0c-3.58,0-6.481,2.901-6.481,6.481
	S16.431,12.963,20.011,12.963"/>
<path fill="#FFFFFF" d="M8.083,40.118l1.348-3.279c-0.859-0.422-1.557-1.16-1.912-2.088L6.26,31.448l-2.787,6.773
	c-0.523,1.273,0.084,2.73,1.357,3.252c0.311,0.129,0.632,0.189,0.947,0.189C6.757,41.661,7.686,41.079,8.083,40.118"/>
<path fill="#FFFFFF" d="M15.448,37.233c0,0.279-0.226,0.504-0.505,0.504c-0.279,0-0.505-0.225-0.505-0.504s0.226-0.506,0.505-0.506
	C15.223,36.727,15.448,36.954,15.448,37.233"/>
<path fill="#FFFFFF" d="M24.08,40.463c0,1.504-1.22,2.725-2.725,2.725s-2.725-1.221-2.725-2.725c0-1.506,1.22-2.725,2.725-2.725
	S24.08,38.958,24.08,40.463"/>
<path fill="#FFFFFF" d="M18.743,44.579c0,0.557-0.451,1.006-1.008,1.006c-0.556,0-1.007-0.449-1.007-1.006s0.451-1.008,1.007-1.008
	C18.292,43.571,18.743,44.022,18.743,44.579"/>
<path fill="#FFFFFF" d="M3.226,12.533c0.303,0.077,0.62,0.118,0.946,0.118c0.328,0,0.646-0.041,0.949-0.118
	c1.656-0.424,2.875-1.928,2.875-3.704c0-2.112-1.713-3.825-3.824-3.825c-2.11,0-3.825,1.713-3.825,3.825
	C0.347,10.612,1.575,12.112,3.226,12.533"/>
<path fill="#FFFFFF" d="M4.16,30.081c0.688,0-0.115-0.005,2.911-0.005l1.613,4.225c0.671,1.766,2.938,2.256,4.277,0.922
	c0.728-0.725,0.963-1.811,0.598-2.771l-2.253-5.912c-0.386-1.01-1.355-1.679-2.438-1.679H8.343l0.002-2.98l0.371,0.358
	c0.388,0.373,0.905,0.582,1.443,0.582h0.056c0.558-0.018,1.086-0.254,1.467-0.66l3.518-3.756c0.762-0.813,0.743-2.084-0.046-2.871
	c-0.009-0.011-0.019-0.02-0.029-0.029c-0.826-0.825-2.17-0.804-2.968,0.048l-2.072,2.215l-2.911-2.797
	c-0.003-0.003-0.009-0.004-0.013-0.009c-0.758-0.779-1.814-1.267-2.988-1.267H4.172c-2.303,0-4.171,1.868-4.171,4.17L0,25.948
	c0,2.305,1.854,4.133,4.158,4.133H4.16z"/>
</svg>
