<?xml version="1.0" encoding="utf-8"?>
<!-- Generator: Adobe Illustrator 16.0.2, SVG Export Plug-In . SVG Version: 6.00 Build 0)  -->
<!DOCTYPE svg PUBLIC "-//W3C//DTD SVG 1.1//EN" "http://www.w3.org/Graphics/SVG/1.1/DTD/svg11.dtd">
<svg version="1.1" id="Layer_1" xmlns="http://www.w3.org/2000/svg" xmlns:xlink="http://www.w3.org/1999/xlink" x="0px" y="0px"
	 width="51.691px" height="63.761px" viewBox="0 0 51.691 63.761" enable-background="new 0 0 51.691 63.761" xml:space="preserve">
<path fill="#FFFFFF" d="M5.715,55.146c0,0.358,0.292,0.65,0.651,0.65h38.343c0.358,0,0.65-0.292,0.65-0.65
	c0-0.361-0.292-0.652-0.65-0.652H6.366C6.007,54.494,5.715,54.785,5.715,55.146"/>
<path fill="#FFFFFF" d="M44.708,56.902H6.366c-0.359,0-0.651,0.291-0.651,0.652c0,0.359,0.292,0.65,0.651,0.65h38.342
	c0.359,0,0.651-0.291,0.651-0.65C45.359,57.193,45.067,56.902,44.708,56.902"/>
<path fill="#FFFFFF" d="M51.041,0H5.88C2.637,0,0,2.637,0,5.879v50.356c0,5.556,3.831,7.526,7.111,7.526h43.93
	c0.358,0,0.65-0.291,0.65-0.651V0.651C51.691,0.291,51.399,0,51.041,0 M7.111,62.458c-0.969,0-5.809-0.299-5.809-6.224V5.879
	c0-2.524,2.054-4.577,4.578-4.577h0.58v40.723c0,0.359,0.292,0.65,0.651,0.65c0.36,0,0.651-0.291,0.651-0.65V1.302h42.626v47.725
	H7.762v-2.003c0-0.358-0.291-0.651-0.651-0.651c-0.359,0-0.651,0.293-0.651,0.651v2.003H6.242c-0.994,0-2.123,0.412-3.179,1.161
	C2.77,50.396,2.7,50.802,2.908,51.095c0.127,0.179,0.328,0.275,0.532,0.275c0.13,0,0.262-0.039,0.375-0.121
	c0.839-0.594,1.7-0.92,2.426-0.92h44.147v1.354H7.341c-2.51,0-4.552,2.042-4.552,4.552c0,2.511,2.042,4.552,4.552,4.552h40.34
	c0.359,0,0.652-0.291,0.652-0.65v-7.151h2.055v9.474H7.111z M44.893,52.985h2.138v6.5H7.341c-1.792,0-3.25-1.458-3.25-3.25
	s1.458-3.25,3.25-3.25H44.893z"/>
<path fill="#FFFFFF" d="M21.387,16.232h0.908c0.053,0,0.193,0.144,0.214,0.413l0.024,0.317c0.26,3.382,0.507,6.588,4.166,6.954
	v4.923h-0.936c-0.359,0-0.651,0.291-0.651,0.651c0,0.359,0.292,0.651,0.651,0.651h3.191c0.36,0,0.651-0.292,0.651-0.651
	c0-0.36-0.291-0.651-0.651-0.651h-0.953v-4.91c3.808-0.289,4.057-3.505,4.315-6.903l0.029-0.381
	c0.021-0.269,0.161-0.413,0.213-0.413h0.911c0.359,0,0.65-0.292,0.65-0.651c0-0.36-0.291-0.651-0.65-0.651h-0.911
	c-0.79,0-1.44,0.694-1.511,1.614l-0.029,0.382c-0.275,3.604-0.535,5.463-3.018,5.698v-6.392h0.953c0.36,0,0.651-0.292,0.651-0.651
	c0-0.36-0.291-0.651-0.651-0.651h-1.513c-0.031-0.004-0.06-0.01-0.092-0.01c-0.031,0-0.062,0.006-0.092,0.01h-1.495
	c-0.359,0-0.651,0.291-0.651,0.651c0,0.359,0.292,0.651,0.651,0.651h0.936v6.374c-2.337-0.301-2.594-2.176-2.867-5.744l-0.025-0.318
	c-0.071-0.92-0.721-1.614-1.512-1.614h-0.907c-0.36,0-0.651,0.291-0.651,0.651C20.737,15.94,21.028,16.232,21.387,16.232"/>
<path fill="#FFFFFF" d="M17.25,42.294c0,0.358,0.291,0.65,0.651,0.65H30.49c0.189,0,0.371-0.084,0.494-0.227
	c0.123-0.145,0.179-0.336,0.149-0.524l-1.071-6.978h8.079c1.437,0,2.605-1.168,2.605-2.604v-5.207h2.933
	c0.23,0,0.442-0.122,0.561-0.319c0.117-0.197,0.121-0.442,0.013-0.644l-3.292-6.062C40.38,13.29,34.424,7.806,27.3,7.806
	c-0.052,0-0.105,0-0.157,0.001c-4.383,0.049-8.291,2.191-10.77,5.463c-1.735,2.291-2.771,5.135-2.778,8.204
	c-0.009,3.491,1.287,6.802,3.655,9.354V42.294z M27.158,9.109c0.047-0.001,0.094-0.001,0.141-0.001
	c6.492,0,11.913,5.031,12.373,11.513c0.008,0.112,0.043,0.214,0.101,0.303l2.813,5.18h-2.49c-0.359,0-0.652,0.291-0.652,0.651v5.858
	c0,0.719-0.582,1.303-1.302,1.303H27.3c-1.76,0-3.461-0.361-5.055-1.074c-0.328-0.146-0.713,0-0.86,0.328
	c-0.147,0.33,0.001,0.715,0.329,0.86c1.762,0.788,3.642,1.187,5.586,1.187h1.445l0.986,6.426h-11.18V30.57
	c0-0.025-0.005-0.049-0.008-0.072c-0.001-0.015-0.001-0.031-0.004-0.047c-0.005-0.028-0.014-0.056-0.023-0.082
	c-0.005-0.014-0.007-0.026-0.012-0.039c-0.012-0.029-0.026-0.055-0.042-0.082c-0.005-0.01-0.01-0.021-0.016-0.031
	c-0.02-0.031-0.043-0.059-0.068-0.087c-0.004-0.004-0.006-0.008-0.01-0.012c-0.002-0.002-0.003-0.004-0.005-0.006
	c-0.002-0.001-0.003-0.003-0.005-0.004c-2.241-2.331-3.471-5.395-3.462-8.63C14.916,14.734,20.417,9.185,27.158,9.109"/>
</svg>
