<?xml version="1.0" encoding="utf-8"?>
<!-- Generator: Adobe Illustrator 16.0.2, SVG Export Plug-In . SVG Version: 6.00 Build 0)  -->
<!DOCTYPE svg PUBLIC "-//W3C//DTD SVG 1.1//EN" "http://www.w3.org/Graphics/SVG/1.1/DTD/svg11.dtd">
<svg version="1.1" id="Layer_1" xmlns="http://www.w3.org/2000/svg" xmlns:xlink="http://www.w3.org/1999/xlink" x="0px" y="0px"
	 width="50.942px" height="52.594px" viewBox="0 0 50.942 52.594" enable-background="new 0 0 50.942 52.594" xml:space="preserve">
<path fill="#FFFFFF" d="M46.298,30.668V14.96c-9.256,1.933-18.501,3.862-27.772,5.797v0.25c0,7.416,0.008,14.833-0.005,22.25
	c-0.005,2.916-1.138,5.338-3.364,7.219c-1.319,1.113-2.856,1.783-4.571,2.021c-2.368,0.328-4.563-0.166-6.535-1.514
	c-1.986-1.357-3.262-3.23-3.808-5.578c-0.396-1.707-0.307-3.398,0.263-5.059c0.662-1.934,1.845-3.479,3.516-4.639
	c1.195-0.832,2.525-1.344,3.974-1.539c2.055-0.273,3.987,0.098,5.804,1.094c0.019,0.012,0.042,0.016,0.088,0.031V7.734
	C26.244,5.155,38.582,2.58,50.94,0v0.319c0,12.78,0.008,25.56-0.005,38.341c-0.003,2.906-1.149,5.318-3.373,7.189
	c-1.339,1.127-2.897,1.809-4.642,2.023c-3.008,0.369-5.618-0.506-7.779-2.619c-1.483-1.453-2.371-3.24-2.629-5.309
	c-0.375-3.008,0.507-5.619,2.621-7.779c1.441-1.473,3.216-2.342,5.263-2.625c2.046-0.283,3.975,0.088,5.787,1.072
	C46.214,30.629,46.249,30.645,46.298,30.668 M18.537,16.025c9.269-1.936,18.52-3.865,27.76-5.794V5.699
	c-9.261,1.933-18.507,3.862-27.76,5.794V16.025z M46.307,38.698c-0.009-2.549-2.089-4.623-4.632-4.619
	c-2.546,0.002-4.623,2.08-4.625,4.625c-0.002,2.553,2.097,4.646,4.644,4.631C44.245,43.321,46.316,41.237,46.307,38.698
	 M9.276,47.965c2.549-0.012,4.621-2.092,4.616-4.635c-0.006-2.547-2.084-4.621-4.628-4.621c-2.553-0.002-4.645,2.1-4.629,4.645
	C4.653,45.905,6.735,47.977,9.276,47.965"/>
</svg>
