<?xml version="1.0" encoding="utf-8"?>
<!-- Generator: Adobe Illustrator 16.0.2, SVG Export Plug-In . SVG Version: 6.00 Build 0)  -->
<!DOCTYPE svg PUBLIC "-//W3C//DTD SVG 1.1//EN" "http://www.w3.org/Graphics/SVG/1.1/DTD/svg11.dtd">
<svg version="1.1" id="Layer_1" xmlns="http://www.w3.org/2000/svg" xmlns:xlink="http://www.w3.org/1999/xlink" x="0px" y="0px"
	 width="66.753px" height="91.514px" viewBox="0 0 66.753 91.514" enable-background="new 0 0 66.753 91.514" xml:space="preserve">
<path fill="#FFFFFF" d="M64.881,16.678H39.855c-1.012,0-1.891,0.879-1.891,1.89v11.793c0,1.385,1.459,2.321,2.695,1.665
	l25.026-11.773C67.501,19.354,66.846,16.678,64.881,16.678"/>
<path fill="#FFFFFF" d="M28.812,30.342V18.55c0-1.011-0.88-1.891-1.892-1.891H1.896c-2.041,0-2.621,2.77-0.807,3.556l25.027,11.849
	C27.352,32.682,28.812,31.729,28.812,30.342"/>
<path fill="#FFFFFF" d="M38.188,35.004c-1.01-0.15-1.89,0.579-2.04,1.59c-0.149,1.011,0.58,1.891,1.592,2.041
	c6.046,0.804,8.798,2.976,8.798,4.137c0,1.591-4.437,4.006-11.27,4.436V12.953c2.771-0.804,4.792-3.35,4.792-6.326
	C39.986,2.996,37.01,0,33.378,0c-3.631,0-6.626,2.976-6.626,6.627c0,3.05,2.04,5.596,4.792,6.326v34.255
	c-6.832-0.355-11.269-2.77-11.269-4.436c0-1.236,2.771-3.351,8.799-4.137c1.01-0.15,1.665-1.011,1.59-2.041
	c-0.149-1.011-1.01-1.665-2.04-1.59c-7.337,1.011-11.999,4.005-11.999,7.786c0,3.052,2.977,5.317,7.057,6.683
	c-2.62,1.46-4.211,3.499-4.211,5.896c0,3.052,2.621,5.597,6.758,6.982c-1.667,1.459-2.695,3.426-2.695,5.521
	c0,2.546,1.46,4.791,3.631,6.252c-2.246,1.46-3.631,3.781-3.631,6.252c0,2.77,1.665,5.316,4.436,6.757
	c0.88,0.506,1.966,0.149,2.471-0.729c0.507-0.879,0.15-1.965-0.729-2.471c-1.591-0.88-2.546-2.191-2.546-3.557
	c0-1.965,1.891-3.706,4.436-4.287v13.609c0,1.011,0.806,1.815,1.816,1.815s1.815-0.805,1.815-1.815V76.089
	c2.546,0.581,4.436,2.247,4.436,4.287c0,1.386-0.954,2.695-2.545,3.557c-0.879,0.506-1.236,1.592-0.73,2.471
	c0.355,0.58,1.198,1.348,2.472,0.729c2.771-1.535,4.436-4.005,4.436-6.757c0-2.545-1.46-4.792-3.632-6.252
	c2.247-1.461,3.632-3.781,3.632-6.252c0-2.189-1.01-4.08-2.696-5.521c4.081-1.386,6.759-3.931,6.759-6.982
	c0-2.396-1.592-4.436-4.211-5.896c4.079-1.312,7.056-3.557,7.056-6.683C50.187,39.009,45.602,36.015,38.188,35.004 M31.563,72.233
	c-2.546-0.58-4.436-2.246-4.436-4.287c0-1.965,1.89-3.705,4.436-4.287V72.233z M31.563,59.729c-4.941-0.354-8.441-2.471-8.441-4.361
	s3.5-3.93,8.441-4.361V59.729z M35.213,72.308v-8.572c2.545,0.58,4.436,2.246,4.436,4.287
	C39.648,69.987,37.758,71.728,35.213,72.308 M43.636,55.368c0,1.891-3.501,4.007-8.44,4.361v-8.723
	C40.155,51.438,43.636,53.478,43.636,55.368"/>
</svg>
