<?xml version="1.0" encoding="utf-8"?>
<!-- Generator: Adobe Illustrator 16.0.2, SVG Export Plug-In . SVG Version: 6.00 Build 0)  -->
<!DOCTYPE svg PUBLIC "-//W3C//DTD SVG 1.1//EN" "http://www.w3.org/Graphics/SVG/1.1/DTD/svg11.dtd">
<svg version="1.1" id="Layer_1" xmlns="http://www.w3.org/2000/svg" xmlns:xlink="http://www.w3.org/1999/xlink" x="0px" y="0px"
	 width="62.494px" height="66.124px" viewBox="0 0 62.494 66.124" enable-background="new 0 0 62.494 66.124" xml:space="preserve">
<path fill="#FFFFFF" d="M16.476,59.114c-1.217,1.217-2.444,2.441-3.669,3.668c-0.973,0.973-1.93,1.961-2.929,2.906
	c-0.234,0.221-0.611,0.404-0.925,0.408c-2.413,0.035-4.826,0.029-7.239,0.02c-1.37-0.006-1.853-0.533-1.68-1.889
	c0.451-3.553,0.929-7.102,1.395-10.652c0.434-3.305,0.874-6.607,1.294-9.914c0.156-1.223,0.421-1.539,1.629-1.793
	c4.34-0.904,8.679-1.811,13.019-2.715c2.361-0.492,3.913-2.293,4.032-4.686c0.04-0.795,0.414-1.291,1.083-1.436
	c0.65-0.14,1.145,0.127,1.532,0.818c0.798,1.424,2.109,1.928,3.646,2.082c0.707,0.072,1.41,0.229,2.102,0.402
	c0.472,0.117,0.63,0.471,0.624,0.977c-0.026,2.096-0.015,4.193-0.009,6.291c0.003,0.762,0.345,1.193,0.953,1.244
	c0.688,0.059,1.158-0.391,1.162-1.168c0.012-2.143,0.032-4.285-0.009-6.426c-0.011-0.584,0.187-0.914,0.708-1.035
	c0.566-0.133,1.145-0.244,1.724-0.285c1.628-0.113,2.976-0.635,3.716-2.238c0.262-0.566,0.792-0.789,1.416-0.666
	c0.655,0.129,1.01,0.553,1.078,1.213c0.311,2.979,1.563,4.404,4.477,5.02c4.205,0.889,8.416,1.752,12.625,2.621
	c1.053,0.217,1.375,0.514,1.518,1.594c0.566,4.287,1.113,8.576,1.672,12.863c0.334,2.566,0.663,5.137,1.025,7.701
	c0.214,1.51-0.231,2.074-1.739,2.074c-15.086,0.004-30.172,0.004-45.258,0.008c-0.241,0-0.482,0-0.766,0
	c1.526-1.477,2.988-2.889,4.532-4.381c2.273,1.412,4.928,1.834,7.73,0.908c2.089-0.689,3.72-1.998,4.874-3.871
	c2.321-3.771,1.595-8.6-1.723-11.563c-3.261-2.912-8.182-3.057-11.635-0.355C15.118,49.474,13.627,54.505,16.476,59.114"/>
<path fill="#FFFFFF" d="M31.044,34.245c-4.461-0.059-7.821-2.167-9.807-6.412c-0.983-2.102-1.512-4.329-1.734-6.627
	c-0.073-0.745-0.276-1.187-1.089-1.396c-1.281-0.331-2.523-0.818-3.775-1.259c-1.293-0.456-1.508-1.644-0.459-2.546
	c1.349-1.162,2.704-2.317,4.076-3.45c0.166-0.137,0.503-0.239,0.679-0.164c4.063,1.712,8.333,2.197,12.69,2.183
	c4.288-0.013,8.484-0.553,12.49-2.188c0.157-0.064,0.447-0.014,0.577,0.099c1.4,1.205,2.793,2.42,4.162,3.661
	c0.869,0.788,0.63,1.958-0.491,2.354c-1.526,0.537-3.069,1.036-4.616,1.514c-0.482,0.147-0.703,0.328-0.763,0.894
	c-0.284,2.656-0.899,5.234-2.181,7.607C38.754,32.305,35.56,34.21,31.044,34.245 M22.156,20.85c0.342,2.55,0.856,4.762,2.035,6.779
	c1.614,2.763,4.091,3.945,7.211,3.906c3.072-0.039,5.39-1.387,6.901-4.084c0.924-1.648,1.449-3.43,1.773-5.279
	c0.059-0.339,0.094-0.683,0.172-1.255C34.17,23.178,28.235,23.185,22.156,20.85"/>
<path fill="#FFFFFF" d="M31.694,12.466c-3.799-0.067-7.258-0.409-10.602-1.544c-0.517-0.176-0.673-0.367-0.549-0.956
	c0.599-2.861,1.129-5.736,1.689-8.605c0.229-1.176,0.905-1.59,2.058-1.242c2.045,0.617,4.09,1.235,6.122,1.893
	c0.585,0.188,1.112,0.199,1.701,0.021c2.151-0.646,4.317-1.256,6.479-1.871c1.361-0.388,1.951-0.036,2.224,1.316
	c0.579,2.866,1.144,5.734,1.741,8.595c0.096,0.461-0.038,0.636-0.457,0.777c-2.444,0.834-4.965,1.269-7.529,1.471
	C33.516,12.405,32.457,12.429,31.694,12.466"/>
<path fill="#FFFFFF" d="M18.517,54.042c-0.008-3.092,2.416-5.545,5.497-5.564c3.12-0.018,5.592,2.422,5.604,5.531
	c0.013,3.072-2.449,5.561-5.503,5.564C20.972,59.577,18.525,57.159,18.517,54.042"/>
</svg>
