<?xml version="1.0" encoding="utf-8"?>
<!-- Generator: Adobe Illustrator 16.0.2, SVG Export Plug-In . SVG Version: 6.00 Build 0)  -->
<!DOCTYPE svg PUBLIC "-//W3C//DTD SVG 1.1//EN" "http://www.w3.org/Graphics/SVG/1.1/DTD/svg11.dtd">
<svg version="1.1" id="Layer_1" xmlns="http://www.w3.org/2000/svg" xmlns:xlink="http://www.w3.org/1999/xlink" x="0px" y="0px"
	 width="89.368px" height="72.255px" viewBox="0 0 89.368 72.255" enable-background="new 0 0 89.368 72.255" xml:space="preserve">
<path fill="#FFFFFF" d="M43.717,14.037c0-2.868,0.048-5.534-0.038-8.195c-0.019-0.577-0.428-1.213-0.817-1.691
	C41.8,2.846,41.573,1.36,42.934,0.432c0.795-0.542,2.501-0.582,3.319-0.075c1.402,0.868,1.198,2.341,0.246,3.721
	c-0.477,0.691-0.874,1.582-0.913,2.401c-0.117,2.479-0.042,4.966-0.042,7.435c2.152,0.419,4.071,0.612,5.875,1.174
	c8.753,2.724,13.063,9.38,15.22,17.745c0.469,1.819,1.172,2.676,3.023,3.293c6.779,2.257,12.627,6.087,17.297,11.535
	c3.534,4.123,3.305,7.25-1.523,9.763c-4.674,2.431-9.865,3.899-14.903,5.567c-1.845,0.61-3.343,1.295-4.826,2.699
	c-1.935,1.83-4.368,3.471-6.88,4.293c-9.383,3.068-18.894,2.957-28.347,0.1c-3.1-0.936-5.748-2.569-7.822-5.16
	c-0.599-0.75-1.704-1.213-2.667-1.533c-4.657-1.553-9.543-2.581-13.978-4.605c-7.28-3.319-7.841-7.535-2.268-13.321
	c4.441-4.611,9.779-7.837,15.967-9.45c1.85-0.482,2.449-1.337,2.895-3.071c2.384-9.264,7.304-16.251,17.312-18.369
	C41.047,14.334,42.208,14.246,43.717,14.037 M20.176,38.949c-6.191,1.982-11.352,5.088-15.371,9.912
	c-2.553,3.066-2.364,4.496,1.142,6.473c2.307,1.302,4.802,2.375,7.336,3.15c12.722,3.889,25.816,4.479,38.979,3.846
	c9.029-0.434,18.012-1.498,26.517-4.828c2.292-0.896,4.394-2.336,6.479-3.682c1.157-0.746,1.223-1.875,0.33-3.023
	c-4.324-5.567-9.974-9.215-16.55-11.799c-1.894,3.647-5.187,4.968-8.604,5.854c-10.478,2.712-21.009,2.729-31.493,0.03
	C25.43,43.978,22.08,42.621,20.176,38.949 M44.38,44.047c0.042-0.237,0.085-0.474,0.127-0.709c1.001,0,2.031,0.151,3-0.026
	c4.891-0.898,9.789-1.779,14.637-2.883c2.334-0.531,3.147-2.338,2.488-4.636c-0.754-2.635-1.348-5.365-2.488-7.833
	c-3.395-7.344-9.166-11.187-17.389-11.231c-8.214-0.044-14.038,3.702-17.549,11c-1.072,2.228-1.759,4.676-2.358,7.089
	c-0.933,3.765-0.498,5.011,3.195,5.981C33.403,42.207,38.926,42.996,44.38,44.047 M62.686,65.019H26.64
	C31.184,70.962,56.928,71.369,62.686,65.019"/>
<path fill="#FFFFFF" d="M73.605,49.439c-0.965,0.688-1.969,1.963-2.883,1.903c-0.949-0.063-2.351-1.285-2.591-2.241
	c-0.39-1.551,0.755-2.879,2.448-2.623c1.068,0.161,2.003,1.2,2.997,1.846C73.586,48.695,73.596,49.066,73.605,49.439"/>
<path fill="#FFFFFF" d="M18.292,45.966c0.716,0.947,1.879,1.824,2.045,2.861c0.251,1.577-0.917,2.926-2.55,2.567
	c-0.995-0.218-2.306-1.511-2.43-2.458c-0.115-0.887,1.148-1.953,1.804-2.939L18.292,45.966z"/>
<path fill="#FFFFFF" d="M47.576,53.932c-0.988,0.655-1.934,1.759-2.977,1.86c-1.592,0.156-2.863-1.088-2.404-2.697
	c0.279-0.979,1.645-2.204,2.594-2.27c0.893-0.06,1.88,1.258,2.825,1.969C47.602,53.173,47.59,53.553,47.576,53.932"/>
<path fill="#FFFFFF" d="M49.072,19.566c-3.947,0.671-7.456,0.93-10.746,1.92c-3.478,1.047-6.095,3.653-7.479,6.988
	c-1.311,3.158-2.006,6.572-3.049,10.136c-1.97-3.916,0.671-11.666,5.058-15.729C37.13,18.924,44.874,17.109,49.072,19.566"/>
</svg>
