<?xml version="1.0" encoding="utf-8"?>
<!-- Generator: Adobe Illustrator 16.0.2, SVG Export Plug-In . SVG Version: 6.00 Build 0)  -->
<!DOCTYPE svg PUBLIC "-//W3C//DTD SVG 1.1//EN" "http://www.w3.org/Graphics/SVG/1.1/DTD/svg11.dtd">
<svg version="1.1" id="Layer_1" xmlns="http://www.w3.org/2000/svg" xmlns:xlink="http://www.w3.org/1999/xlink" x="0px" y="0px"
	 width="67.087px" height="60.264px" viewBox="0 0 67.087 60.264" enable-background="new 0 0 67.087 60.264" xml:space="preserve">
<path fill="#FFFFFF" d="M61.795,2.5l-1.002-1.046L59.779,2.5c-0.854,0.875-1.686,1.728-2.508,2.561
	c-2.008-1.804-6.701-5.292-12.73-5.049l-0.778,0.032l-0.386,0.684c-7.002,12.379-32.965,30.061-36.005,32.1
	c-1.164,0.414-2.443,1.215-3.809,2.635c-4.931,5.123-4.13,12.904-1.292,17.971c2.445,4.355,6.221,6.83,10.212,6.83
	c0.694,0,1.399-0.063,2.114-0.225c1.954-0.426,3.456-1.418,4.62-2.754c1.931-1.971,11.558-11.77,20.779-19.879
	c0.946,1.131,3.521,4.373,4.563,7.789c1.293,4.236,1.858,10.734,1.858,10.734l2.115-4.596l3.051,0.969c0,0-0.448-5.922-2.211-9.338
	c-1.758-3.402-4.236-6.924-4.236-6.924s4.557,2.293,7.171,5.166c2.606,2.867,4.985,8.695,4.985,8.695l1.727-3.395l5.008-1.174
	c0,0-7.748-7.031-9.615-8.354c-1.646-1.176-6.211-4.131-7.47-5.412c7.277-5.806,13.957-10.352,14.533-10.682
	c3.213-1.813,5.112-4.248,5.526-7.031C67.506,10.428,65.754,6.607,61.795,2.5 M19.377,36.691c0.907,5.197,1.718,19.025-5.401,20.594
	c-4.139,0.918-7.502-2.1-9.253-5.229C2.389,47.875,1.65,41.504,5.59,37.428c1.975-2.049,3.768-2.637,5.336-1.74
	c1.035,0.588,1.909,1.686,2.562,2.967c-1.027,0.992-3.182,3-7.163,6.383L5.697,45.58l0.161,0.811c1.055,5.229,3.915,5.891,5.1,5.934
	c2.754,0.063,5.377-2.463,6.456-6.381c0.918-3.34-0.855-10.299-5.09-12.709c-0.095-0.055-0.202-0.107-0.311-0.16
	c3.683-2.564,9.829-7.002,16.009-12.125c2.508,0.47,5.794,1.538,7.854,3.917c-10.938,8.944-15.366,10.194-15.431,10.202
	l-1.301,0.301L19.377,36.691z M14.542,41.547c0.33,1.408,0.396,2.74,0.15,3.648c-0.779,2.818-2.412,4.313-3.587,4.313h-0.052
	c-0.94-0.031-1.751-1.09-2.24-2.881C11.554,44.279,13.378,42.635,14.542,41.547 M22.257,50.232c0.94-5.004,0.397-10.49,0.077-12.859
	c2.06-0.863,6.764-3.338,15.058-10.083c1.257,2.549,1.813,5.039,2.058,6.851C33.25,39.506,26.697,45.826,22.257,50.232
	 M34.689,15.104c4.43-4.132,8.357-8.388,10.715-12.283c4.547,0.117,8.207,2.795,9.87,4.245c-4.907,4.898-9.209,8.955-12.966,12.294
	C39.867,16.34,36.996,15.337,34.689,15.104 M64.219,13.448c-0.29,1.923-1.666,3.608-4.13,4.997c-0.886,0.5-6.97,4.682-13.638,9.922
	c-0.012-1.301-0.386-3.169-2.531-6.647c4.738-4.215,10.311-9.51,16.841-16.188C63.386,8.531,64.539,11.186,64.219,13.448"/>
</svg>
