<?xml version="1.0" encoding="utf-8"?>
<!-- Generator: Adobe Illustrator 16.0.2, SVG Export Plug-In . SVG Version: 6.00 Build 0)  -->
<!DOCTYPE svg PUBLIC "-//W3C//DTD SVG 1.1//EN" "http://www.w3.org/Graphics/SVG/1.1/DTD/svg11.dtd">
<svg version="1.1" id="Layer_1" xmlns="http://www.w3.org/2000/svg" xmlns:xlink="http://www.w3.org/1999/xlink" x="0px" y="0px"
	 width="67.125px" height="66.886px" viewBox="0 0 67.125 66.886" enable-background="new 0 0 67.125 66.886" xml:space="preserve">
<path fill="#FFFFFF" d="M51.717,36.821v17.384c-2.246-0.903-4.84-1.365-7.704-1.365c-7.032,0-13.729,2.698-15.744,3.591v-12.88
	L29.2,44.58V25.235c3.801-3.182,8.441-4.818,13.848-4.818c0.629,0,1.235,0.032,1.825,0.073l1.533-1.47
	c-1.04-0.116-2.162-0.199-3.358-0.199c-5.868,0-10.929,1.795-15.042,5.323c-4.114-3.528-9.174-5.312-15.043-5.312
	c-5.49,0-9.594,1.596-9.763,1.658l-0.514,0.198v3.244C1.028,24.238,0,24.794,0,25.708v33.369h7.664l-2.468-5.176
	c-0.306,0.095-0.621,0.188-0.913,0.304V21.793c1.228-0.411,4.565-1.376,8.68-1.376c5.406,0,10.045,1.636,13.847,4.829v19.345
	l0.932-1.04v12.901c-0.031-0.012,0.012,3.871,0.012,3.871c1.427,0.201,2.951-0.48,3.8-1.238h23.964V34.229
	C54.971,35.312,51.717,36.821,51.717,36.821"/>
<path fill="#FFFFFF" d="M65.445,2.55c-4.577,3.926-19.501,16.996-19.208,19.893l0.011,0.177l0.673,0.893h-1.04l-0.179,0.01
	c-0.913,0.159-2.57,2.846-3.105,5.06c-0.621,2.572,0,4.638,1.795,5.975c0.104,0.082,0.21,0.145,0.313,0.219l-0.852,1.154
	l-1.394-0.955l-0.567,0.828l1.365,0.936l-6.414,8.701l3.012-1.691l4.504-6.256l0.997,0.683l0.567-0.827l-0.977-0.672l0.943-1.314
	c1.073,0.391,2.279,0.494,3.569,0.285c2.866-0.483,5.604-2.426,6.057-3.485c0.126-0.325,0.083-0.577,0.01-0.744l-0.209-0.758
	l0.767,0.231l0.336,0.011c0.628-0.105,1.479-0.252,5.951-14.158c2.152-6.699,4.114-13.447,4.136-13.521l0.618-2.12L65.445,2.55z
	 M56.166,29.548l-2.737-0.806l0.827,3.001c-0.387,0.597-2.561,2.204-5.006,2.612c-0.936,0.16-1.773,0.105-2.551-0.115l0.032-0.041
	l9.951-15.46l-0.231-0.127l-10.78,14.852l-0.167,0.242c-0.104-0.073-0.231-0.116-0.327-0.188c-1.038-0.788-1.543-1.889-1.489-3.296
	c0.083-2.392,1.741-4.912,2.287-5.396l3.571-0.008L47.56,22.18c0.336-1.51,5.931-7.148,12.597-13.205l0.452,2.687l2.203-0.65
	C59.998,20.132,57.206,28.258,56.166,29.548 M63.115,10.015L61.3,10.539l-0.377-2.257c1.207-1.091,2.445-2.193,3.694-3.276
	C64.123,6.678,63.62,8.357,63.115,10.015"/>
<path fill="#FFFFFF" d="M19.167,6.686v8.986c0,0.104-0.021,1.061,0.607,1.722c0.368,0.376,0.873,0.578,1.47,0.578h14.024
	c0.61,0,1.134-0.21,1.513-0.599c0.65-0.672,0.629-1.658,0.629-1.742V6.686h-3.875V5.533h1.123V3.999h-2.37L32.896,0h-8.744
	l0.621,3.999h-2.373v1.534h1.239v1.153H19.167z M36.298,15.65c0,0.169-0.043,0.672-0.325,0.957c-0.169,0.166-0.39,0.252-0.704,0.252
	H21.244c-0.293,0-0.513-0.075-0.661-0.231c-0.263-0.274-0.313-0.758-0.313-0.935v-0.661h16.028V15.65z M34.681,13.887H21.887v-0.524
	h12.794V13.887z M24.131,12.197h8.533v0.527h-8.533V12.197z M24.74,7.801V5.533h7.693v2.268h3.864v2.749H20.27V7.801H24.74z"/>
<polygon fill="#FFFFFF" points="17.521,38.974 12.28,38.974 12.28,54.667 10.517,51.056 5.584,51.034 7.61,55.202 7.599,55.202 
	8.9,57.839 9.069,58.185 12.28,64.683 14.454,64.683 14.454,66.886 24.184,66.886 24.184,64.683 26.358,64.683 26.358,54.636 
	17.521,49.986 "/>
</svg>
