<?xml version="1.0" encoding="utf-8"?>
<!-- Generator: Adobe Illustrator 16.0.2, SVG Export Plug-In . SVG Version: 6.00 Build 0)  -->
<!DOCTYPE svg PUBLIC "-//W3C//DTD SVG 1.1//EN" "http://www.w3.org/Graphics/SVG/1.1/DTD/svg11.dtd">
<svg version="1.1" id="Layer_1" xmlns="http://www.w3.org/2000/svg" xmlns:xlink="http://www.w3.org/1999/xlink" x="0px" y="0px"
	 width="108.959px" height="101px" viewBox="0 0 108.959 101" enable-background="new 0 0 108.959 101" xml:space="preserve">
<g>
	<g>
		<defs>
			<rect id="SVGID_1_" width="108.959" height="101"/>
		</defs>
		<clipPath id="SVGID_2_">
			<use xlink:href="#SVGID_1_"  overflow="visible"/>
		</clipPath>
		<path clip-path="url(#SVGID_2_)" d="M106.859,22.813c-0.91-1.219-2.195-2.153-3.848-2.805c0.09,1.523-0.02,2.762-0.324,3.719
			L83.133,88.059c-0.348,1.129-1.109,2.031-2.281,2.703s-2.387,1.012-3.648,1.012h-60.16c-5.215,0-8.34-1.52-9.383-4.563
			c-0.437-1.176-0.414-2.109,0.063-2.805c0.48-0.652,1.304-0.977,2.476-0.977H66.84c4.043,0,6.836-0.75,8.375-2.25
			c1.547-1.5,3.098-4.836,4.664-10.004l17.855-59.055c0.957-3.215,0.566-6.039-1.172-8.472C94.824,1.219,92.348,0,89.133,0H39.531
			c-0.566,0-1.672,0.196-3.324,0.586l0.066-0.195c-1.218-0.262-2.25-0.379-3.097-0.36c-0.848,0.024-1.629,0.274-2.348,0.75
			c-0.715,0.481-1.289,0.989-1.726,1.532c-0.434,0.543-0.856,1.238-1.27,2.086c-0.414,0.847-0.762,1.632-1.043,2.347
			c-0.281,0.719-0.609,1.477-0.977,2.282c-0.371,0.804-0.726,1.468-1.078,1.988c-0.257,0.347-0.629,0.805-1.105,1.371
			c-0.477,0.562-0.871,1.062-1.172,1.496c-0.305,0.438-0.5,0.828-0.59,1.176c-0.086,0.39-0.043,0.965,0.133,1.726
			c0.172,0.758,0.238,1.313,0.195,1.661c-0.175,1.652-0.773,3.75-1.793,6.289c-1.019,2.543-1.945,4.378-2.769,5.507
			c-0.176,0.219-0.653,0.707-1.434,1.469c-0.781,0.758-1.261,1.422-1.433,1.988c-0.176,0.215-0.184,0.825-0.036,1.825
			c0.153,1,0.211,1.695,0.165,2.086c-0.172,1.476-0.715,3.429-1.629,5.863c-0.914,2.433-1.825,4.433-2.739,5.996
			c-0.129,0.262-0.5,0.762-1.105,1.5c-0.61,0.738-0.981,1.348-1.11,1.824c-0.085,0.348-0.074,0.957,0.032,1.828
			c0.109,0.867,0.097,1.52-0.032,1.953c-0.347,1.648-1,3.637-1.957,5.965c-0.953,2.324-1.933,4.313-2.933,5.961
			c-0.258,0.438-0.617,0.945-1.074,1.531c-0.457,0.59-0.813,1.098-1.075,1.531C1.012,72,0.84,72.457,0.75,72.934
			c-0.043,0.262,0.023,0.684,0.199,1.27c0.172,0.586,0.239,1.055,0.196,1.402c-0.047,0.609-0.133,1.414-0.262,2.414
			c-0.133,1-0.195,1.582-0.195,1.758c-0.958,2.609-0.915,5.367,0.128,8.277c1.215,3.391,3.379,6.246,6.485,8.574
			c3.109,2.324,6.332,3.484,9.679,3.484h60.161c2.824,0,5.484-0.945,7.984-2.836c2.496-1.891,4.16-4.223,4.984-7.008l17.922-59.051
			C108.988,28.09,108.598,25.289,106.859,22.813L106.859,22.813z M37.512,22.942l1.367-4.172c0.176-0.563,0.531-1.051,1.074-1.465
			s1.098-0.621,1.664-0.621h39.629c0.609,0,1.043,0.207,1.305,0.621c0.258,0.414,0.305,0.902,0.129,1.465l-1.367,4.172
			c-0.176,0.566-0.535,1.054-1.078,1.468c-0.543,0.411-1.098,0.618-1.66,0.618H38.945c-0.609,0-1.043-0.207-1.304-0.618
			C37.379,23.996,37.336,23.508,37.512,22.942L37.512,22.942z M32.102,39.629l1.367-4.172c0.176-0.566,0.531-1.054,1.078-1.465
			c0.543-0.414,1.094-0.621,1.66-0.621h39.629c0.609,0,1.043,0.207,1.305,0.621c0.258,0.411,0.305,0.899,0.129,1.465l-1.371,4.172
			c-0.172,0.563-0.531,1.051-1.074,1.465s-1.098,0.621-1.66,0.621H33.535c-0.609,0-1.043-0.207-1.305-0.621
			C31.973,40.68,31.926,40.192,32.102,39.629L32.102,39.629z M32.102,39.629"/>
	</g>
</g>
</svg>
