<?xml version="1.0" encoding="utf-8"?>
<!-- Generator: Adobe Illustrator 16.0.2, SVG Export Plug-In . SVG Version: 6.00 Build 0)  -->
<!DOCTYPE svg PUBLIC "-//W3C//DTD SVG 1.1//EN" "http://www.w3.org/Graphics/SVG/1.1/DTD/svg11.dtd">
<svg version="1.1" id="Layer_1" xmlns="http://www.w3.org/2000/svg" xmlns:xlink="http://www.w3.org/1999/xlink" x="0px" y="0px"
	 width="48.479px" height="48.477px" viewBox="0 0 48.479 48.477" enable-background="new 0 0 48.479 48.477" xml:space="preserve">
<path fill="#020202" d="M47.446,11.889l-3.895,3.894L32.692,4.928l3.898-3.899c1.227-1.226,3.074-1.378,4.117-0.339l7.078,7.082
	C48.829,8.815,48.677,10.658,47.446,11.889L47.446,11.889z M12.259,25.361L30.884,6.736l10.855,10.86L15.849,43.487
	c-0.117,0.117-0.445,0.445-0.91,0.566c-0.055,0.023-0.105,0.047-0.16,0.063L1.267,48.42c-0.379,0.121-0.762,0.047-1.008-0.203
	c-0.246-0.246-0.324-0.625-0.203-1.004L4.36,33.702c0.02-0.055,0.039-0.109,0.066-0.16c0.117-0.465,0.445-0.793,0.566-0.914
	l4.867-4.864 M12.509,42.651l-6.684-6.684l-1.793,5.629l2.852,2.848L12.509,42.651z M30.466,11.053
	c-0.383-0.387-1.008-0.387-1.391,0L8.892,31.237c-0.387,0.383-0.387,1.008,0,1.391c0.383,0.383,1.008,0.383,1.391,0l20.184-20.184
	C30.849,12.061,30.849,11.436,30.466,11.053L30.466,11.053z M19.024,14.639"/>
</svg>
