<?xml version="1.0" encoding="utf-8"?>
<!-- Generator: Adobe Illustrator 16.0.2, SVG Export Plug-In . SVG Version: 6.00 Build 0)  -->
<!DOCTYPE svg PUBLIC "-//W3C//DTD SVG 1.1//EN" "http://www.w3.org/Graphics/SVG/1.1/DTD/svg11.dtd">
<svg version="1.1" id="Layer_1" xmlns="http://www.w3.org/2000/svg" xmlns:xlink="http://www.w3.org/1999/xlink" x="0px" y="0px"
	 width="256px" height="410.879px" viewBox="0 0 256 410.879" enable-background="new 0 0 256 410.879" xml:space="preserve">
<g>
	<g>
		<defs>
			<rect id="SVGID_1_" width="255.84" height="410.879"/>
		</defs>
		<clipPath id="SVGID_2_">
			<use xlink:href="#SVGID_1_"  overflow="visible"/>
		</clipPath>
		<path clip-path="url(#SVGID_2_)" d="M252.793,167.108c-4.512-8.137-13.086-13.188-22.395-13.188h-61.773l10.488-125.875
			c0.969-11.637-6.059-22.449-17.082-26.301c-11.012-3.836-23.258,0.262-29.73,9.978l-128,192
			c-5.239,7.855-5.727,17.957-1.27,26.281c4.449,8.324,13.125,13.516,22.567,13.516h61.957l-10.68,138.84
			c-0.906,11.75,6.328,22.598,17.531,26.281c2.629,0.867,5.328,1.281,7.992,1.281c8.637,0,16.93-4.395,21.707-12.031l128-204.801
			C257.043,185.194,257.301,175.252,252.793,167.108L252.793,167.108z M252.793,167.108"/>
	</g>
</g>
</svg>
