<?xml version="1.0" encoding="utf-8"?>
<!-- Generator: Adobe Illustrator 16.0.2, SVG Export Plug-In . SVG Version: 6.00 Build 0)  -->
<!DOCTYPE svg PUBLIC "-//W3C//DTD SVG 1.1//EN" "http://www.w3.org/Graphics/SVG/1.1/DTD/svg11.dtd">
<svg version="1.1" id="Layer_1" xmlns="http://www.w3.org/2000/svg" xmlns:xlink="http://www.w3.org/1999/xlink" x="0px" y="0px"
	 width="20.047px" height="29.688px" viewBox="0 0 20.047 29.688" enable-background="new 0 0 20.047 29.688" xml:space="preserve">
<g>
	<path d="M20.047,10.024C20.047,4.489,15.559,0,10.024,0C4.489,0,0,4.489,0,10.024c0,7.93,10.024,19.664,10.024,19.664
		S20.047,17.911,20.047,10.024L20.047,10.024z M5.083,9.422c0-2.73,2.21-4.941,4.941-4.941c2.73,0,4.945,2.211,4.945,4.941
		c0,2.731-2.215,4.946-4.945,4.946C7.293,14.368,5.083,12.153,5.083,9.422L5.083,9.422z M5.083,9.422"/>
	<path d="M12.454,9.422c0,1.344-1.085,2.434-2.43,2.434c-1.344,0-2.43-1.09-2.43-2.434c0-1.34,1.086-2.429,2.43-2.429
		C11.368,6.993,12.454,8.082,12.454,9.422L12.454,9.422z M12.454,9.422"/>
</g>
</svg>
