<?xml version="1.0" encoding="utf-8"?>
<!-- Generator: Adobe Illustrator 16.0.2, SVG Export Plug-In . SVG Version: 6.00 Build 0)  -->
<!DOCTYPE svg PUBLIC "-//W3C//DTD SVG 1.1//EN" "http://www.w3.org/Graphics/SVG/1.1/DTD/svg11.dtd">
<svg version="1.1" id="Layer_1" xmlns="http://www.w3.org/2000/svg" xmlns:xlink="http://www.w3.org/1999/xlink" x="0px" y="0px"
	 width="285.84px" height="368.879px" viewBox="0 0 285.84 368.879" enable-background="new 0 0 285.84 368.879"
	 xml:space="preserve">
<g>
	<g>
		<defs>
			<rect id="SVGID_1_" width="285.84" height="368.879"/>
		</defs>
		<clipPath id="SVGID_2_">
			<use xlink:href="#SVGID_1_"  overflow="visible"/>
		</clipPath>
		<path clip-path="url(#SVGID_2_)" d="M98.977,324.063c0,0.098-0.004,0.191-0.004,0.289c0,24.063,19.504,43.57,43.566,43.57
			c24.063,0,43.57-19.508,43.57-43.57c0-0.098-0.008-0.191-0.008-0.289H98.977z M98.977,324.063"/>
		<path clip-path="url(#SVGID_2_)" d="M281.645,269.605L242.434,212v-71.864c0-48.464-34.516-88.863-80.305-97.964V20.043
			c-0.004-10.821-8.773-19.59-19.59-19.59c-10.82,0-19.59,8.77-19.59,19.59v22.129C77.16,51.277,42.645,91.675,42.645,140.14v71.864
			L3.434,269.605c-4.129,6.066-4.567,13.918-1.133,20.406c3.429,6.488,10.168,10.547,17.508,10.547h245.46
			c7.34,0,14.078-4.059,17.508-10.547C286.211,283.523,285.773,275.672,281.645,269.605L281.645,269.605z M281.645,269.605"/>
	</g>
</g>
</svg>
