<?xml version="1.0" encoding="utf-8"?>
<!-- Generator: Adobe Illustrator 16.0.2, SVG Export Plug-In . SVG Version: 6.00 Build 0)  -->
<!DOCTYPE svg PUBLIC "-//W3C//DTD SVG 1.1//EN" "http://www.w3.org/Graphics/SVG/1.1/DTD/svg11.dtd">
<svg version="1.1" id="Layer_1" xmlns="http://www.w3.org/2000/svg" xmlns:xlink="http://www.w3.org/1999/xlink" x="0px" y="0px"
	 width="856.672px" height="538.03px" viewBox="0 0 856.672 538.03" enable-background="new 0 0 856.672 538.03"
	 xml:space="preserve">
<g>
	<defs>
		<rect id="SVGID_1_" width="856.672" height="538.03"/>
	</defs>
	<clipPath id="SVGID_2_">
		<use xlink:href="#SVGID_1_"  overflow="visible"/>
	</clipPath>
	<path clip-path="url(#SVGID_2_)" fill="#F88710" d="M468.613,490.335c2.929,19.134-2.946,33.951-20.237,42.922
		c-14.898,7.729-36.121,5.903-50.221-4.258c4.362-4.074,8.733-7.917,12.832-12.031c14.933-14.988,30.345-29.556,44.489-45.261
		c13.756-15.272,16.197-33.746,9.196-52.808c-6.965-18.964-21.084-30.146-41.036-33.946c-8.747-1.666-17.299-0.944-25.524,2.067
		c-4.097,1.499-4.805-0.003-4.92-3.406c-0.36-10.629-3.81-20.188-10.096-28.736c-14.473-19.677-39.663-27.206-62.257-18.203
		c-4.61,1.837-4.957,0.646-5.154-3.548c-1.158-24.577-23.279-46.717-47.901-48.119c-4.146-0.234-8.358-0.306-12.47,0.159
		c-4.079,0.461-8.072,1.696-12.505,2.682c0.158-9.337-1.33-18.238-5.333-26.644c-15.369-32.268-58.413-40.654-84.307-15.978
		c-17.608,16.779-34.538,34.27-51.768,51.447c-4.633,4.619-4.616,4.616-8.649-0.216c-23.288-27.902-50.302-51.31-82.554-68.389
		c-2.349-1.244-4.695-2.588-7.196-3.426c-3.489-1.167-3.521-2.919-2.19-5.976c14.81-34.004,29.497-68.061,44.214-102.106
		c12.671-29.31,25.32-58.63,38.023-87.926c1.983-4.572,3.977-9.139,7.405-12.936c8.826-9.775,19.039-11.424,30.467-4.737
		c3.315,1.94,6.493,4.099,9.157,6.887c12.672,13.261,28.67,19.655,46.418,22.034c19.984,2.679,40.043,1.949,59.486-3.084
		c14.591-3.776,28.725-9.39,43.373-13.204c35.419-9.22,71.257-15.047,108.018-13.515c13.834,0.577,27.455,2.513,40.98,6.401
		c-0.901,3.286-3.082,5.485-5.409,7.591c-30.985,28.044-61.992,56.063-92.932,84.155c-8.627,7.832-18.17,14.618-26.169,23.162
		c-8.908,9.516-16.122,19.968-18.134,33.202c-2.329,15.318,2.735,28.413,12.234,40.216c12.662,15.735,30.11,22.422,49.077,26.223
		c9.663,1.937,19.412,2.403,29.3,1.72c15.036-1.039,26.226-9.362,37.538-18.101c29.119-22.497,58.522-44.627,87.75-66.984
		c2.206-1.687,3.794-1.833,6.174-0.296c32.375,20.908,62.93,44.182,91.699,69.83c28.148,25.097,53.843,52.507,78.284,81.201
		c13.019,15.282,21.19,32.169,21.604,52.341c0.802,39.088-26.177,57.111-59.255,52.904c-5.294-0.675-10.346-2.391-15.823-4.143
		c0.565,7.161,1.007,14.068-1.046,20.785c-5.597,18.318-18.559,28.193-36.832,31.735c-14.67,2.844-28.406-0.381-41.527-6.996
		c-1.037-0.524-2.055-1.086-3.093-1.609c-0.132-0.066-0.328-0.009-0.907-0.009c0.741,4.842,2.067,9.556,2.039,14.505
		c-0.12,21.623-16.736,38.977-38.413,40.213c-11.59,0.662-22.521-1.269-32.846-6.596
		C470.824,491.096,469.894,490.831,468.613,490.335"/>
	<path clip-path="url(#SVGID_2_)" fill="#F88710" d="M491.508,0c13.159,0.839,25.146,4.832,37.062,9.029
		c27.738,9.769,55.033,20.841,83.797,27.538c33.353,7.766,66.229,8.145,98.39-5.304c9.143-3.823,17.433-8.764,24.106-16.412
		c6.165-7.065,15.721-9.104,23.624-6.023c3.783,1.475,6.696,3.962,7.916,7.801c7.42,23.347,17.676,45.555,27.421,67.948
		c14.271,32.794,28.799,65.483,45.636,97.078c3.684,6.911,7.686,13.556,12.827,19.573c7.267,8.504,5.213,20.571-4.013,27.034
		c-32.889,23.04-64.716,47.432-94.41,74.52c-4.191,3.823-7.86,8.137-11.401,12.569c-7.384,9.245-16.651,10.138-24.661,1.37
		c-7.954-8.705-14.854-18.366-22.328-27.519c-36.166-44.288-76.746-84.063-121.861-119.215
		c-20.906-16.288-42.683-31.303-65.093-45.43c-3.539-2.23-5.589-3.971-9.971,0.359c-7.633,7.545-16.962,13.373-25.571,19.931
		c-27.411,20.882-54.827,41.759-82.22,62.666c-4.396,3.355-9.494,4.958-14.808,5.406c-17.273,1.457-33.817-1.329-49.332-9.359
		c-8.611-4.456-14.811-11.298-18.94-19.907c-6.821-14.223-0.927-25.741,8.308-36.396c7.244-8.357,16.329-14.682,24.451-22.072
		c23.149-21.064,46.41-42.005,69.632-62.989c9.263-8.371,18.53-16.739,27.817-25.083c1.994-1.792,3.577-3.842,5.056-6.1
		c10.313-15.772,23.52-27.557,42.994-30.41C487.905,0.315,489.896,0.172,491.508,0"/>
	<path clip-path="url(#SVGID_2_)" fill="#F88710" d="M241.63,450.707c0.009-9.912,4.219-17.99,11.051-24.841
		c20.824-20.877,41.638-41.766,62.565-62.539c10.819-10.739,25.234-13.631,38.039-7.995c13.083,5.761,20.961,18.224,20.392,32.608
		c-0.344,8.688-3.801,16.176-9.89,22.298c-21.5,21.615-43.022,43.209-64.681,64.664c-10.352,10.255-24.701,12.677-37.815,6.884
		C249.308,476.492,241.537,464.205,241.63,450.707"/>
	<path clip-path="url(#SVGID_2_)" fill="#F88710" d="M316.478,502.479c-0.123-8.409,2.314-15.949,8.087-21.971
		c22.357-23.323,44.956-46.433,68.605-68.437c13.134-12.22,33.787-10.674,46.001,2.099c12.471,13.041,12.826,33.502,0.086,46.514
		c-21.793,22.257-43.761,44.354-66.119,66.04c-10.533,10.217-23.537,12.292-36.981,6.177
		C323.351,527.077,316.893,516.578,316.478,502.479"/>
	<path clip-path="url(#SVGID_2_)" fill="#F88710" d="M197.997,436.301c-14.321-0.318-24.941-6.854-30.794-19.873
		c-5.957-13.252-4.01-26.079,6.131-36.494c21.963-22.559,44.237-44.823,66.777-66.807c13.275-12.945,33.931-11.791,47.061,1.797
		c12.396,12.827,12.362,33.63-0.358,46.458c-21.701,21.886-43.516,43.659-65.384,65.378
		C215.027,433.118,207.209,436.469,197.997,436.301"/>
	<path clip-path="url(#SVGID_2_)" fill="#F88710" d="M222.878,282.842c0.078,10.922-3.188,18.612-9.416,24.883
		c-21.835,21.987-43.696,43.948-65.738,65.726c-12.785,12.632-33.461,12.403-46.471-0.104
		c-13.277-12.765-14.389-33.497-1.571-46.695c21.933-22.585,44.293-44.758,66.709-66.864c9.951-9.813,24.33-11.878,37.011-6.167
		C215.417,259.032,222.975,271.14,222.878,282.842"/>
</g>
</svg>
