<?xml version="1.0" encoding="utf-8"?>
<!-- Generator: Adobe Illustrator 16.0.2, SVG Export Plug-In . SVG Version: 6.00 Build 0)  -->
<!DOCTYPE svg PUBLIC "-//W3C//DTD SVG 1.1//EN" "http://www.w3.org/Graphics/SVG/1.1/DTD/svg11.dtd">
<svg version="1.1" id="Layer_1" xmlns="http://www.w3.org/2000/svg" xmlns:xlink="http://www.w3.org/1999/xlink" x="0px" y="0px"
	 width="94.287px" height="107.203px" viewBox="0 0 94.287 107.203" enable-background="new 0 0 94.287 107.203"
	 xml:space="preserve">
<g>
	<defs>
		<rect id="SVGID_1_" width="94.287" height="107.203"/>
	</defs>
	<clipPath id="SVGID_2_">
		<use xlink:href="#SVGID_1_"  overflow="visible"/>
	</clipPath>
	<path clip-path="url(#SVGID_2_)" fill="#F88710" d="M24.403,94.267c0-2.746-0.333-5.542,0.062-8.23
		c1.23-8.388,7.159-14.357,15.659-15.158c5.434-0.512,11.02-0.425,16.444,0.201c8.391,0.968,14.643,8.483,14.782,16.957
		c0.071,4.277-0.054,8.557,0.059,12.832c0.039,1.491-0.532,2.171-1.834,2.686c-7.897,3.125-16.144,4.231-24.496,3.364
		c-6.414-0.666-12.73-2.263-19.093-3.43c-1.342-0.246-1.867-0.92-1.785-2.349c0.129-2.284,0.034-4.581,0.034-6.873
		C24.292,94.267,24.347,94.267,24.403,94.267"/>
	<path clip-path="url(#SVGID_2_)" fill="#F88710" d="M21.024,92.661c-7.047-0.24-13.559-1.707-19.96-3.72
		c-0.461-0.145-1.02-0.949-1.018-1.445c0.025-5.336-0.264-10.721,0.35-15.995c0.987-8.487,8.174-14.724,16.716-15.053
		c3.963-0.153,7.939-0.1,11.904,0.013c0.651,0.019,1.787,0.771,1.839,1.274c0.422,4.042,2.215,7.391,5.033,10.534
		C24.647,72.573,20.278,81.073,21.024,92.661"/>
	<path clip-path="url(#SVGID_2_)" fill="#F88710" d="M59.644,68.268c3.337-3.401,4.903-7.282,5.246-12.089
		c5.325,0.246,10.559-0.013,15.607,0.836c7.736,1.299,13.382,8.549,13.688,16.746c0.164,4.42,0.112,8.854-0.022,13.275
		c-0.022,0.729-0.821,1.776-1.523,2.089c-5.638,2.511-11.63,3.413-18.046,3.702C75.334,81.28,71.141,72.682,59.644,68.268"/>
	<path clip-path="url(#SVGID_2_)" fill="#F88710" d="M47.06,0c8.207-0.025,15.071,6.781,15.104,14.977
		c0.032,8.17-6.811,15.063-14.994,15.105c-8.164,0.041-15.067-6.814-15.101-14.996C32.034,6.898,38.864,0.025,47.06,0"/>
	<path clip-path="url(#SVGID_2_)" fill="#F88710" d="M47.776,42.16c7.571-0.012,13.88,6.245,13.905,13.795
		c0.026,7.556-6.24,13.825-13.845,13.85c-7.587,0.024-13.891-6.225-13.908-13.788C33.912,48.479,40.215,42.172,47.776,42.16"/>
	<path clip-path="url(#SVGID_2_)" fill="#F88710" d="M24.065,55.535c-7.966,0.025-13.994-5.86-14.277-13.424
		c-0.27-7.233,5.645-13.775,12.799-14.157c7.67-0.41,14.236,5.112,14.764,12.574c0.068,0.963-0.555,2.066-1.095,2.961
		c-1.481,2.455-3.703,4.653-4.476,7.291c-0.825,2.815-2.479,3.779-4.841,4.354C25.834,55.401,24.68,55.453,24.065,55.535"/>
	<path clip-path="url(#SVGID_2_)" fill="#F88710" d="M70.876,55.603c-1.238-0.128-2.239-0.158-3.209-0.347
		c-1.788-0.348-3.029-0.957-3.406-3.23c-0.658-3.963-3.022-7.066-6.162-9.615c-0.662-0.538-1.234-1.775-1.12-2.586
		c1.003-7.058,6.92-11.997,14.021-11.884c6.577,0.104,12.398,5.249,13.254,11.713c0.952,7.198-3.11,13.484-10.011,15.397
		C73.078,55.374,71.846,55.45,70.876,55.603"/>
	<path clip-path="url(#SVGID_2_)" fill="#F88710" d="M56.969,31.308c-1.05,3.024-2.013,5.801-3.038,8.755
		c-4.532-1.821-9.252-1.511-13.57,0.59c-1.021-3.143-1.993-6.137-3.035-9.345H56.969z"/>
</g>
</svg>
